<svg width="14" height="18" viewBox="0 0 14 18" fill="none" xmlns="http://www.w3.org/2000/svg">
<path fill-rule="evenodd" clip-rule="evenodd" d="M7.00011 18C8.28672 18 9.41173 17.1832 9.82932 16H11.4226C11.7724 16 12.1183 15.9266 12.4379 15.7845C13.6996 15.2238 14.2679 13.7464 13.7071 12.4847L13.0001 10.8939V8C13.0001 5.38756 11.3305 3.16508 9.00011 2.34141V2C9.00011 0.89543 8.10468 0 7.00011 0C5.89554 0 5.00011 0.89543 5.00011 2V2.34141C2.66973 3.16508 1.00011 5.38756 1.00011 8V10.8939L0.293108 12.4847C0.151042 12.8043 0.0776367 13.1502 0.0776367 13.5C0.0776367 14.8807 1.19692 16 2.57764 16H4.17084C4.58723 17.1802 5.71071 18 7.00011 18ZM5.2672 16H8.73301C8.3837 16.6045 7.7309 17 7.00011 17C6.26802 17 5.61591 16.6033 5.2672 16Z" fill="url(#paint0_linear)"/>
<defs>
<linearGradient id="paint0_linear" x1="-0.747708" y1="1.8499" x2="15.6413" y2="1.8499" gradientUnits="userSpaceOnUse">
<stop stop-color="#EAAFFF"/>
<stop offset="0.8155" stop-color="#A58FFF"/>
</linearGradient>
</defs>
</svg>
