







<svg width="97" height="79" viewBox="0 0 97 79" fill="none" xmlns="http://www.w3.org/2000/svg">
<g filter="url(#filter0_d)">
<rect x="25.5" y="26.5" width="46" height="28" rx="14" stroke="#2F2F2F" shape-rendering="crispEdges"/>
</g>
<path fill-rule="evenodd" clip-rule="evenodd" d="M48 34C47.4477 34 47 34.4477 47 35V40H42C41.4477 40 41 40.4477 41 41C41 41.5523 41.4477 42 42 42H47V47C47 47.5523 47.4477 48 48 48C48.5523 48 49 47.5523 49 47V42H54C54.5523 42 55 41.5523 55 41C55 40.4477 54.5523 40 54 40H49V35C49 34.4477 48.5523 34 48 34Z" fill="#2F2F2F"/>
<defs>
<filter id="filter0_d" x="0" y="0" width="97" height="79" filterUnits="userSpaceOnUse" color-interpolation-filters="sRGB">
<feFlood flood-opacity="0" result="BackgroundImageFix"/>
<feColorMatrix in="SourceAlpha" type="matrix" values="0 0 0 0 0 0 0 0 0 0 0 0 0 0 0 0 0 0 127 0" result="hardAlpha"/>
<feOffset dy="-1"/>
<feGaussianBlur stdDeviation="12.5"/>
<feComposite in2="hardAlpha" operator="out"/>
<feColorMatrix type="matrix" values="0 0 0 0 0 0 0 0 0 0 0 0 0 0 0 0 0 0 0.15 0"/>
<feBlend mode="normal" in2="BackgroundImageFix" result="effect1_dropShadow"/>
<feBlend mode="normal" in="SourceGraphic" in2="effect1_dropShadow" result="shape"/>
</filter>
</defs>
</svg>
