<svg width="20" height="20" viewBox="0 0 20 20" fill="none" xmlns="http://www.w3.org/2000/svg">
<path d="M18 8.73596L18.3179 8.35L17.5 7.67648V8.73596H18ZM2.00001 8.73596H2.50001V7.67647L1.68216 8.35L2.00001 8.73596ZM1.81787 8.88597L2.13572 9.27193H2.13572L1.81787 8.88597ZM1.18216 8.11403L0.864307 7.72807L1.18216 8.11403ZM9.68216 1.11403L10 1.5L9.68216 1.11403ZM10.3179 1.11403L10.6357 0.72807L10.3179 1.11403ZM18.8179 8.11403L18.5 8.5V8.5L18.8179 8.11403ZM18.1822 8.88597L18.5 8.5L18.5 8.5L18.1822 8.88597ZM17.5 8.73596V16.5H18.5V8.73596H17.5ZM17.5 16.5C17.5 17.6046 16.6046 18.5 15.5 18.5V19.5C17.1569 19.5 18.5 18.1569 18.5 16.5H17.5ZM15.5 18.5H12.5V19.5H15.5V18.5ZM12.5 18.5H11.5C11.5 19.0523 11.9477 19.5 12.5 19.5V18.5ZM12.5 18.5V12.5H11.5V18.5H12.5ZM12.5 12.5C12.5 11.9477 12.0523 11.5 11.5 11.5V12.5H12.5ZM11.5 11.5H8.50001V12.5H11.5V11.5ZM8.50001 11.5C7.94773 11.5 7.50001 11.9477 7.50001 12.5H8.50001V11.5ZM7.50001 12.5V18.5H8.50001V12.5H7.50001ZM7.50001 18.5V19.5C8.0523 19.5 8.50001 19.0523 8.50001 18.5H7.50001ZM7.50001 18.5H4.50001V19.5H7.50001V18.5ZM4.50001 18.5C3.39544 18.5 2.50001 17.6046 2.50001 16.5H1.50001C1.50001 18.1569 2.84316 19.5 4.50001 19.5V18.5ZM2.50001 16.5V8.73596H1.50001V16.5H2.50001ZM1.68216 8.35L1.50001 8.5L2.13572 9.27193L2.31787 9.12193L1.68216 8.35ZM1.50001 8.5L0.728084 9.13571C1.07917 9.56203 1.7094 9.62302 2.13572 9.27193L1.50001 8.5ZM1.50001 8.5L0.864307 7.72807C0.437982 8.07916 0.376993 8.70938 0.728084 9.13571L1.50001 8.5ZM1.50001 8.5L10 1.5L9.36431 0.72807L0.864307 7.72807L1.50001 8.5ZM10 1.5L10.6357 0.72807C10.2665 0.423977 9.73356 0.423977 9.36431 0.72807L10 1.5ZM10 1.5L18.5 8.5L19.1357 7.72807L10.6357 0.72807L10 1.5ZM18.5 8.5L19.2719 9.13571C19.623 8.70938 19.562 8.07916 19.1357 7.72807L18.5 8.5ZM18.5 8.5H18.5L17.8643 9.27193C18.2906 9.62302 18.9209 9.56203 19.2719 9.13571L18.5 8.5ZM18.5 8.5L18.3179 8.35L17.6822 9.12193L17.8643 9.27193L18.5 8.5Z" fill="#2F2F2F"/>
</svg>
