<svg width="367" height="181" viewBox="0 0 367 181" fill="none" xmlns="http://www.w3.org/2000/svg">
<path d="M4.42691 27.424V28.016H2.90691V33H2.17891V28.016H0.650906V27.424H4.42691ZM6.03503 27.424V30.952C6.03503 31.448 6.15503 31.816 6.39503 32.056C6.64036 32.296 6.97903 32.416 7.41103 32.416C7.8377 32.416 8.17103 32.296 8.41103 32.056C8.65636 31.816 8.77903 31.448 8.77903 30.952V27.424H9.50703V30.944C9.50703 31.408 9.4137 31.8 9.22703 32.12C9.04036 32.4347 8.78703 32.6693 8.46703 32.824C8.15236 32.9787 7.7977 33.056 7.40303 33.056C7.00836 33.056 6.65103 32.9787 6.33103 32.824C6.01636 32.6693 5.7657 32.4347 5.57903 32.12C5.3977 31.8 5.30703 31.408 5.30703 30.944V27.424H6.03503ZM11.4495 28.016V29.88H13.4815V30.48H11.4495V32.4H13.7215V33H10.7215V27.416H13.7215V28.016H11.4495ZM16.591 33.056C16.223 33.056 15.8924 32.992 15.599 32.864C15.311 32.7307 15.0844 32.5493 14.919 32.32C14.7537 32.0853 14.6684 31.816 14.663 31.512H15.439C15.4657 31.7733 15.5724 31.9947 15.759 32.176C15.951 32.352 16.2284 32.44 16.591 32.44C16.9377 32.44 17.2097 32.3547 17.407 32.184C17.6097 32.008 17.711 31.784 17.711 31.512C17.711 31.2987 17.6524 31.1253 17.535 30.992C17.4177 30.8587 17.271 30.7573 17.095 30.688C16.919 30.6187 16.6817 30.544 16.383 30.464C16.015 30.368 15.719 30.272 15.495 30.176C15.2764 30.08 15.087 29.9307 14.927 29.728C14.7724 29.52 14.695 29.2427 14.695 28.896C14.695 28.592 14.7724 28.3227 14.927 28.088C15.0817 27.8533 15.2977 27.672 15.575 27.544C15.8577 27.416 16.1804 27.352 16.543 27.352C17.0657 27.352 17.4924 27.4827 17.823 27.744C18.159 28.0053 18.3484 28.352 18.391 28.784H17.591C17.5644 28.5707 17.4524 28.384 17.255 28.224C17.0577 28.0587 16.7964 27.976 16.471 27.976C16.167 27.976 15.919 28.056 15.727 28.216C15.535 28.3707 15.439 28.5893 15.439 28.872C15.439 29.0747 15.495 29.24 15.607 29.368C15.7244 29.496 15.8657 29.5947 16.031 29.664C16.2017 29.728 16.439 29.8027 16.743 29.888C17.111 29.9893 17.407 30.0907 17.631 30.192C17.855 30.288 18.047 30.44 18.207 30.648C18.367 30.8507 18.447 31.128 18.447 31.48C18.447 31.752 18.375 32.008 18.231 32.248C18.087 32.488 17.8737 32.6827 17.591 32.832C17.3084 32.9813 16.975 33.056 16.591 33.056ZM21.2543 27.424C21.8623 27.424 22.3877 27.5387 22.8303 27.768C23.2783 27.992 23.6197 28.3147 23.8543 28.736C24.0943 29.1573 24.2143 29.6533 24.2143 30.224C24.2143 30.7947 24.0943 31.2907 23.8543 31.712C23.6197 32.128 23.2783 32.448 22.8303 32.672C22.3877 32.8907 21.8623 33 21.2543 33H19.5183V27.424H21.2543ZM21.2543 32.4C21.9743 32.4 22.5237 32.2107 22.9023 31.832C23.281 31.448 23.4703 30.912 23.4703 30.224C23.4703 29.5307 23.2783 28.9893 22.8943 28.6C22.5157 28.2107 21.969 28.016 21.2543 28.016H20.2463V32.4H21.2543ZM28.4706 31.76H26.0386L25.5906 33H24.8226L26.8386 27.456H27.6786L29.6866 33H28.9186L28.4706 31.76ZM28.2626 31.168L27.2546 28.352L26.2466 31.168H28.2626ZM34.4692 27.424L32.6532 30.896V33H31.9252V30.896L30.1012 27.424H30.9092L32.2852 30.248L33.6612 27.424H34.4692Z" fill="#4B4B4B"/>
<path d="M5.72644 16.208C7.26244 14.928 8.48644 13.864 9.39844 13.016C10.3104 12.152 11.0704 11.256 11.6784 10.328C12.2864 9.4 12.5904 8.488 12.5904 7.592C12.5904 6.776 12.3984 6.136 12.0144 5.672C11.6304 5.208 11.0384 4.976 10.2384 4.976C9.43844 4.976 8.82244 5.248 8.39044 5.792C7.95844 6.32 7.73444 7.048 7.71844 7.976H4.45444C4.51844 6.056 5.08644 4.6 6.15844 3.608C7.24644 2.616 8.62244 2.12 10.2864 2.12C12.1104 2.12 13.5104 2.608 14.4864 3.584C15.4624 4.544 15.9504 5.816 15.9504 7.4C15.9504 8.648 15.6144 9.84 14.9424 10.976C14.2704 12.112 13.5024 13.104 12.6384 13.952C11.7744 14.784 10.6464 15.792 9.25444 16.976H16.3344V19.76H4.47844V17.264L5.72644 16.208ZM21.3797 10.736C19.7797 9.904 18.9797 8.616 18.9797 6.872C18.9797 6.008 19.1957 5.224 19.6277 4.52C20.0757 3.8 20.7397 3.232 21.6197 2.816C22.5157 2.384 23.6037 2.168 24.8837 2.168C26.1637 2.168 27.2437 2.384 28.1237 2.816C29.0197 3.232 29.6837 3.8 30.1157 4.52C30.5637 5.224 30.7877 6.008 30.7877 6.872C30.7877 7.752 30.5717 8.528 30.1397 9.2C29.7077 9.856 29.1317 10.368 28.4117 10.736C29.2917 11.12 29.9797 11.68 30.4757 12.416C30.9717 13.152 31.2197 14.024 31.2197 15.032C31.2197 16.12 30.9397 17.072 30.3797 17.888C29.8357 18.688 29.0837 19.304 28.1237 19.736C27.1637 20.168 26.0837 20.384 24.8837 20.384C23.6837 20.384 22.6037 20.168 21.6437 19.736C20.6997 19.304 19.9477 18.688 19.3877 17.888C18.8437 17.072 18.5717 16.12 18.5717 15.032C18.5717 14.024 18.8197 13.152 19.3157 12.416C19.8117 11.664 20.4997 11.104 21.3797 10.736ZM27.5237 7.352C27.5237 6.568 27.2837 5.96 26.8037 5.528C26.3397 5.096 25.6997 4.88 24.8837 4.88C24.0837 4.88 23.4437 5.096 22.9637 5.528C22.4997 5.96 22.2677 6.576 22.2677 7.376C22.2677 8.096 22.5077 8.672 22.9877 9.104C23.4837 9.536 24.1157 9.752 24.8837 9.752C25.6517 9.752 26.2837 9.536 26.7797 9.104C27.2757 8.656 27.5237 8.072 27.5237 7.352ZM24.8837 12.2C23.9717 12.2 23.2277 12.432 22.6517 12.896C22.0917 13.36 21.8117 14.024 21.8117 14.888C21.8117 15.688 22.0837 16.344 22.6277 16.856C23.1877 17.352 23.9397 17.6 24.8837 17.6C25.8277 17.6 26.5717 17.344 27.1157 16.832C27.6597 16.32 27.9317 15.672 27.9317 14.888C27.9317 14.04 27.6517 13.384 27.0917 12.92C26.5317 12.44 25.7957 12.2 24.8837 12.2Z" fill="#4B4B4B"/>
<path d="M48.5566 12L50 13.4434L51.4434 12L50 10.5566L48.5566 12ZM327 12.25C327.138 12.25 327.25 12.1381 327.25 12C327.25 11.8619 327.138 11.75 327 11.75V12.25ZM50 12.25H327V11.75H50V12.25Z" fill="#4B4B4B"/>
<g filter="url(#filter0_d)">
<rect x="50" y="38" width="277" height="49" rx="16" fill="white"/>
</g>
<path d="M82.04 61.07C81.5733 61.07 81.1533 60.99 80.78 60.83C80.4067 60.6633 80.1133 60.43 79.9 60.13C79.6867 59.83 79.58 59.48 79.58 59.08H80.8C80.8267 59.38 80.9433 59.6267 81.15 59.82C81.3633 60.0133 81.66 60.11 82.04 60.11C82.4333 60.11 82.74 60.0167 82.96 59.83C83.18 59.6367 83.29 59.39 83.29 59.09C83.29 58.8567 83.22 58.6667 83.08 58.52C82.9467 58.3733 82.7767 58.26 82.57 58.18C82.37 58.1 82.09 58.0133 81.73 57.92C81.2767 57.8 80.9067 57.68 80.62 57.56C80.34 57.4333 80.1 57.24 79.9 56.98C79.7 56.72 79.6 56.3733 79.6 55.94C79.6 55.54 79.7 55.19 79.9 54.89C80.1 54.59 80.38 54.36 80.74 54.2C81.1 54.04 81.5167 53.96 81.99 53.96C82.6633 53.96 83.2133 54.13 83.64 54.47C84.0733 54.8033 84.3133 55.2633 84.36 55.85H83.1C83.08 55.5967 82.96 55.38 82.74 55.2C82.52 55.02 82.23 54.93 81.87 54.93C81.5433 54.93 81.2767 55.0133 81.07 55.18C80.8633 55.3467 80.76 55.5867 80.76 55.9C80.76 56.1133 80.8233 56.29 80.95 56.43C81.0833 56.5633 81.25 56.67 81.45 56.75C81.65 56.83 81.9233 56.9167 82.27 57.01C82.73 57.1367 83.1033 57.2633 83.39 57.39C83.6833 57.5167 83.93 57.7133 84.13 57.98C84.3367 58.24 84.44 58.59 84.44 59.03C84.44 59.3833 84.3433 59.7167 84.15 60.03C83.9633 60.3433 83.6867 60.5967 83.32 60.79C82.96 60.9767 82.5333 61.07 82.04 61.07ZM87.9652 58.25L90.5052 61H88.9652L86.9252 58.63V61H85.7852V53.6H86.9252V57.9L88.9252 55.49H90.5052L87.9652 58.25ZM91.9023 54.76C91.6956 54.76 91.5223 54.69 91.3823 54.55C91.2423 54.41 91.1723 54.2367 91.1723 54.03C91.1723 53.8233 91.2423 53.65 91.3823 53.51C91.5223 53.37 91.6956 53.3 91.9023 53.3C92.1023 53.3 92.2723 53.37 92.4123 53.51C92.5523 53.65 92.6223 53.8233 92.6223 54.03C92.6223 54.2367 92.5523 54.41 92.4123 54.55C92.2723 54.69 92.1023 54.76 91.9023 54.76ZM92.4623 55.49V61H91.3223V55.49H92.4623ZM95.099 53.6V61H93.959V53.6H95.099ZM97.7357 53.6V61H96.5957V53.6H97.7357ZM101.232 61.09C100.799 61.09 100.409 61.0133 100.062 60.86C99.7224 60.7 99.4524 60.4867 99.2524 60.22C99.0524 59.9467 98.9458 59.6433 98.9324 59.31H100.112C100.132 59.5433 100.242 59.74 100.442 59.9C100.649 60.0533 100.906 60.13 101.212 60.13C101.532 60.13 101.779 60.07 101.952 59.95C102.132 59.8233 102.222 59.6633 102.222 59.47C102.222 59.2633 102.122 59.11 101.922 59.01C101.729 58.91 101.419 58.8 100.992 58.68C100.579 58.5667 100.242 58.4567 99.9824 58.35C99.7224 58.2433 99.4958 58.08 99.3024 57.86C99.1158 57.64 99.0224 57.35 99.0224 56.99C99.0224 56.6967 99.1091 56.43 99.2824 56.19C99.4558 55.9433 99.7024 55.75 100.022 55.61C100.349 55.47 100.722 55.4 101.142 55.4C101.769 55.4 102.272 55.56 102.652 55.88C103.039 56.1933 103.246 56.6233 103.272 57.17H102.132C102.112 56.9233 102.012 56.7267 101.832 56.58C101.652 56.4333 101.409 56.36 101.102 56.36C100.802 56.36 100.572 56.4167 100.412 56.53C100.252 56.6433 100.172 56.7933 100.172 56.98C100.172 57.1267 100.226 57.25 100.332 57.35C100.439 57.45 100.569 57.53 100.722 57.59C100.876 57.6433 101.102 57.7133 101.402 57.8C101.802 57.9067 102.129 58.0167 102.382 58.13C102.642 58.2367 102.866 58.3967 103.052 58.61C103.239 58.8233 103.336 59.1067 103.342 59.46C103.342 59.7733 103.256 60.0533 103.082 60.3C102.909 60.5467 102.662 60.74 102.342 60.88C102.029 61.02 101.659 61.09 101.232 61.09ZM107.424 55.4C107.844 55.4 108.218 55.49 108.544 55.67C108.878 55.85 109.138 56.1167 109.324 56.47C109.518 56.8233 109.614 57.25 109.614 57.75V61H108.484V57.92C108.484 57.4267 108.361 57.05 108.114 56.79C107.868 56.5233 107.531 56.39 107.104 56.39C106.678 56.39 106.338 56.5233 106.084 56.79C105.838 57.05 105.714 57.4267 105.714 57.92V61H104.574V53.6H105.714V56.13C105.908 55.8967 106.151 55.7167 106.444 55.59C106.744 55.4633 107.071 55.4 107.424 55.4ZM110.688 58.22C110.688 57.6667 110.802 57.1767 111.028 56.75C111.262 56.3233 111.575 55.9933 111.968 55.76C112.368 55.52 112.808 55.4 113.288 55.4C113.722 55.4 114.098 55.4867 114.418 55.66C114.745 55.8267 115.005 56.0367 115.198 56.29V55.49H116.348V61H115.198V60.18C115.005 60.44 114.742 60.6567 114.408 60.83C114.075 61.0033 113.695 61.09 113.268 61.09C112.795 61.09 112.362 60.97 111.968 60.73C111.575 60.4833 111.262 60.1433 111.028 59.71C110.802 59.27 110.688 58.7733 110.688 58.22ZM115.198 58.24C115.198 57.86 115.118 57.53 114.958 57.25C114.805 56.97 114.602 56.7567 114.348 56.61C114.095 56.4633 113.822 56.39 113.528 56.39C113.235 56.39 112.962 56.4633 112.708 56.61C112.455 56.75 112.248 56.96 112.088 57.24C111.935 57.5133 111.858 57.84 111.858 58.22C111.858 58.6 111.935 58.9333 112.088 59.22C112.248 59.5067 112.455 59.7267 112.708 59.88C112.968 60.0267 113.242 60.1 113.528 60.1C113.822 60.1 114.095 60.0267 114.348 59.88C114.602 59.7333 114.805 59.52 114.958 59.24C115.118 58.9533 115.198 58.62 115.198 58.24ZM118.986 56.29C119.152 56.01 119.372 55.7933 119.646 55.64C119.926 55.48 120.256 55.4 120.636 55.4V56.58H120.346C119.899 56.58 119.559 56.6933 119.326 56.92C119.099 57.1467 118.986 57.54 118.986 58.1V61H117.846V55.49H118.986V56.29ZM126.734 58.11C126.734 58.3167 126.72 58.5033 126.694 58.67H122.484C122.517 59.11 122.68 59.4633 122.974 59.73C123.267 59.9967 123.627 60.13 124.054 60.13C124.667 60.13 125.1 59.8733 125.354 59.36H126.584C126.417 59.8667 126.114 60.2833 125.674 60.61C125.24 60.93 124.7 61.09 124.054 61.09C123.527 61.09 123.054 60.9733 122.634 60.74C122.22 60.5 121.894 60.1667 121.654 59.74C121.42 59.3067 121.304 58.8067 121.304 58.24C121.304 57.6733 121.417 57.1767 121.644 56.75C121.877 56.3167 122.2 55.9833 122.614 55.75C123.034 55.5167 123.514 55.4 124.054 55.4C124.574 55.4 125.037 55.5133 125.444 55.74C125.85 55.9667 126.167 56.2867 126.394 56.7C126.62 57.1067 126.734 57.5767 126.734 58.11ZM125.544 57.75C125.537 57.33 125.387 56.9933 125.094 56.74C124.8 56.4867 124.437 56.36 124.004 56.36C123.61 56.36 123.274 56.4867 122.994 56.74C122.714 56.9867 122.547 57.3233 122.494 57.75H125.544ZM130.073 57.51C130.073 56.83 130.23 56.22 130.543 55.68C130.863 55.14 131.293 54.72 131.833 54.42C132.38 54.1133 132.976 53.96 133.623 53.96C134.363 53.96 135.02 54.1433 135.593 54.51C136.173 54.87 136.593 55.3833 136.853 56.05H135.483C135.303 55.6833 135.053 55.41 134.733 55.23C134.413 55.05 134.043 54.96 133.623 54.96C133.163 54.96 132.753 55.0633 132.393 55.27C132.033 55.4767 131.75 55.7733 131.543 56.16C131.343 56.5467 131.243 56.9967 131.243 57.51C131.243 58.0233 131.343 58.4733 131.543 58.86C131.75 59.2467 132.033 59.5467 132.393 59.76C132.753 59.9667 133.163 60.07 133.623 60.07C134.043 60.07 134.413 59.98 134.733 59.8C135.053 59.62 135.303 59.3467 135.483 58.98H136.853C136.593 59.6467 136.173 60.16 135.593 60.52C135.02 60.88 134.363 61.06 133.623 61.06C132.97 61.06 132.373 60.91 131.833 60.61C131.293 60.3033 130.863 59.88 130.543 59.34C130.23 58.8 130.073 58.19 130.073 57.51ZM140.578 61.09C140.058 61.09 139.588 60.9733 139.168 60.74C138.748 60.5 138.418 60.1667 138.178 59.74C137.938 59.3067 137.818 58.8067 137.818 58.24C137.818 57.68 137.941 57.1833 138.188 56.75C138.434 56.3167 138.771 55.9833 139.198 55.75C139.624 55.5167 140.101 55.4 140.628 55.4C141.154 55.4 141.631 55.5167 142.058 55.75C142.484 55.9833 142.821 56.3167 143.068 56.75C143.314 57.1833 143.438 57.68 143.438 58.24C143.438 58.8 143.311 59.2967 143.058 59.73C142.804 60.1633 142.458 60.5 142.018 60.74C141.584 60.9733 141.104 61.09 140.578 61.09ZM140.578 60.1C140.871 60.1 141.144 60.03 141.398 59.89C141.658 59.75 141.868 59.54 142.028 59.26C142.188 58.98 142.268 58.64 142.268 58.24C142.268 57.84 142.191 57.5033 142.038 57.23C141.884 56.95 141.681 56.74 141.428 56.6C141.174 56.46 140.901 56.39 140.608 56.39C140.314 56.39 140.041 56.46 139.788 56.6C139.541 56.74 139.344 56.95 139.198 57.23C139.051 57.5033 138.978 57.84 138.978 58.24C138.978 58.8333 139.128 59.2933 139.428 59.62C139.734 59.94 140.118 60.1 140.578 60.1ZM149.554 55.49V61H148.414V60.35C148.234 60.5767 147.998 60.7567 147.704 60.89C147.418 61.0167 147.111 61.08 146.784 61.08C146.351 61.08 145.961 60.99 145.614 60.81C145.274 60.63 145.004 60.3633 144.804 60.01C144.611 59.6567 144.514 59.23 144.514 58.73V55.49H145.644V58.56C145.644 59.0533 145.768 59.4333 146.014 59.7C146.261 59.96 146.598 60.09 147.024 60.09C147.451 60.09 147.788 59.96 148.034 59.7C148.288 59.4333 148.414 59.0533 148.414 58.56V55.49H149.554ZM152.199 56.29C152.365 56.01 152.585 55.7933 152.859 55.64C153.139 55.48 153.469 55.4 153.849 55.4V56.58H153.559C153.112 56.58 152.772 56.6933 152.539 56.92C152.312 57.1467 152.199 57.54 152.199 58.1V61H151.059V55.49H152.199V56.29ZM156.896 61.09C156.463 61.09 156.073 61.0133 155.726 60.86C155.386 60.7 155.116 60.4867 154.916 60.22C154.716 59.9467 154.61 59.6433 154.596 59.31H155.776C155.796 59.5433 155.906 59.74 156.106 59.9C156.313 60.0533 156.57 60.13 156.876 60.13C157.196 60.13 157.443 60.07 157.616 59.95C157.796 59.8233 157.886 59.6633 157.886 59.47C157.886 59.2633 157.786 59.11 157.586 59.01C157.393 58.91 157.083 58.8 156.656 58.68C156.243 58.5667 155.906 58.4567 155.646 58.35C155.386 58.2433 155.16 58.08 154.966 57.86C154.78 57.64 154.686 57.35 154.686 56.99C154.686 56.6967 154.773 56.43 154.946 56.19C155.12 55.9433 155.366 55.75 155.686 55.61C156.013 55.47 156.386 55.4 156.806 55.4C157.433 55.4 157.936 55.56 158.316 55.88C158.703 56.1933 158.91 56.6233 158.936 57.17H157.796C157.776 56.9233 157.676 56.7267 157.496 56.58C157.316 56.4333 157.073 56.36 156.766 56.36C156.466 56.36 156.236 56.4167 156.076 56.53C155.916 56.6433 155.836 56.7933 155.836 56.98C155.836 57.1267 155.89 57.25 155.996 57.35C156.103 57.45 156.233 57.53 156.386 57.59C156.54 57.6433 156.766 57.7133 157.066 57.8C157.466 57.9067 157.793 58.0167 158.046 58.13C158.306 58.2367 158.53 58.3967 158.716 58.61C158.903 58.8233 159 59.1067 159.006 59.46C159.006 59.7733 158.92 60.0533 158.746 60.3C158.573 60.5467 158.326 60.74 158.006 60.88C157.693 61.02 157.323 61.09 156.896 61.09ZM165.288 58.11C165.288 58.3167 165.275 58.5033 165.248 58.67H161.038C161.072 59.11 161.235 59.4633 161.528 59.73C161.822 59.9967 162.182 60.13 162.608 60.13C163.222 60.13 163.655 59.8733 163.908 59.36H165.138C164.972 59.8667 164.668 60.2833 164.228 60.61C163.795 60.93 163.255 61.09 162.608 61.09C162.082 61.09 161.608 60.9733 161.188 60.74C160.775 60.5 160.448 60.1667 160.208 59.74C159.975 59.3067 159.858 58.8067 159.858 58.24C159.858 57.6733 159.972 57.1767 160.198 56.75C160.432 56.3167 160.755 55.9833 161.168 55.75C161.588 55.5167 162.068 55.4 162.608 55.4C163.128 55.4 163.592 55.5133 163.998 55.74C164.405 55.9667 164.722 56.2867 164.948 56.7C165.175 57.1067 165.288 57.5767 165.288 58.11ZM164.098 57.75C164.092 57.33 163.942 56.9933 163.648 56.74C163.355 56.4867 162.992 56.36 162.558 56.36C162.165 56.36 161.828 56.4867 161.548 56.74C161.268 56.9867 161.102 57.3233 161.048 57.75H164.098Z" fill="#4B4B4B"/>
<path d="M79.304 66.88V66.216H80.808V72H80.072V66.88H79.304ZM85.2825 67.592C85.1652 67 84.7998 66.704 84.1865 66.704C83.7118 66.704 83.3572 66.888 83.1225 67.256C82.8878 67.6187 82.7732 68.2187 82.7785 69.056C82.9012 68.7787 83.1038 68.5627 83.3865 68.408C83.6745 68.248 83.9945 68.168 84.3465 68.168C84.8958 68.168 85.3332 68.3387 85.6585 68.68C85.9892 69.0213 86.1545 69.4933 86.1545 70.096C86.1545 70.4587 86.0825 70.784 85.9385 71.072C85.7998 71.36 85.5865 71.5893 85.2985 71.76C85.0158 71.9307 84.6718 72.016 84.2665 72.016C83.7172 72.016 83.2878 71.8933 82.9785 71.648C82.6692 71.4027 82.4532 71.064 82.3305 70.632C82.2078 70.2 82.1465 69.6667 82.1465 69.032C82.1465 67.0747 82.8292 66.096 84.1945 66.096C84.7172 66.096 85.1278 66.2373 85.4265 66.52C85.7252 66.8027 85.9012 67.16 85.9545 67.592H85.2825ZM84.1945 68.784C83.9652 68.784 83.7492 68.832 83.5465 68.928C83.3438 69.0187 83.1785 69.16 83.0505 69.352C82.9278 69.5387 82.8665 69.768 82.8665 70.04C82.8665 70.4453 82.9838 70.776 83.2185 71.032C83.4532 71.2827 83.7892 71.408 84.2265 71.408C84.5998 71.408 84.8958 71.2933 85.1145 71.064C85.3385 70.8293 85.4505 70.5147 85.4505 70.12C85.4505 69.704 85.3438 69.3787 85.1305 69.144C84.9172 68.904 84.6052 68.784 84.1945 68.784ZM87.4886 72.048C87.35 72.048 87.2326 72 87.1366 71.904C87.0406 71.808 86.9926 71.6907 86.9926 71.552C86.9926 71.4133 87.0406 71.296 87.1366 71.2C87.2326 71.104 87.35 71.056 87.4886 71.056C87.622 71.056 87.734 71.104 87.8246 71.2C87.9206 71.296 87.9686 71.4133 87.9686 71.552C87.9686 71.6907 87.9206 71.808 87.8246 71.904C87.734 72 87.622 72.048 87.4886 72.048ZM88.8163 69.048C88.8163 68.1307 88.9656 67.416 89.2643 66.904C89.563 66.3867 90.0856 66.128 90.8323 66.128C91.5736 66.128 92.0936 66.3867 92.3923 66.904C92.691 67.416 92.8403 68.1307 92.8403 69.048C92.8403 69.9813 92.691 70.7067 92.3923 71.224C92.0936 71.7413 91.5736 72 90.8323 72C90.0856 72 89.563 71.7413 89.2643 71.224C88.9656 70.7067 88.8163 69.9813 88.8163 69.048ZM92.1203 69.048C92.1203 68.584 92.0883 68.192 92.0243 67.872C91.9656 67.5467 91.8403 67.2853 91.6483 67.088C91.4616 66.8907 91.1896 66.792 90.8323 66.792C90.4696 66.792 90.1923 66.8907 90.0003 67.088C89.8136 67.2853 89.6883 67.5467 89.6243 67.872C89.5656 68.192 89.5363 68.584 89.5363 69.048C89.5363 69.528 89.5656 69.9307 89.6243 70.256C89.6883 70.5813 89.8136 70.8427 90.0003 71.04C90.1923 71.2373 90.4696 71.336 90.8323 71.336C91.1896 71.336 91.4616 71.2373 91.6483 71.04C91.8403 70.8427 91.9656 70.5813 92.0243 70.256C92.0883 69.9307 92.1203 69.528 92.1203 69.048ZM93.8398 69.048C93.8398 68.1307 93.9891 67.416 94.2878 66.904C94.5864 66.3867 95.1091 66.128 95.8558 66.128C96.5971 66.128 97.1171 66.3867 97.4158 66.904C97.7144 67.416 97.8637 68.1307 97.8637 69.048C97.8637 69.9813 97.7144 70.7067 97.4158 71.224C97.1171 71.7413 96.5971 72 95.8558 72C95.1091 72 94.5864 71.7413 94.2878 71.224C93.9891 70.7067 93.8398 69.9813 93.8398 69.048ZM97.1438 69.048C97.1438 68.584 97.1118 68.192 97.0478 67.872C96.9891 67.5467 96.8638 67.2853 96.6718 67.088C96.4851 66.8907 96.2131 66.792 95.8558 66.792C95.4931 66.792 95.2158 66.8907 95.0238 67.088C94.8371 67.2853 94.7118 67.5467 94.6478 67.872C94.5891 68.192 94.5598 68.584 94.5598 69.048C94.5598 69.528 94.5891 69.9307 94.6478 70.256C94.7118 70.5813 94.8371 70.8427 95.0238 71.04C95.2158 71.2373 95.4931 71.336 95.8558 71.336C96.2131 71.336 96.4851 71.2373 96.6718 71.04C96.8638 70.8427 96.9891 70.5813 97.0478 70.256C97.1118 69.9307 97.1438 69.528 97.1438 69.048Z" fill="#757575"/>
<path d="M290.392 61.4508L289.577 64.1685C289.507 64.3997 289.571 64.6504 289.741 64.8209C289.866 64.9457 290.034 65.0132 290.205 65.0132C290.268 65.0132 290.332 65.0042 290.394 64.9854L293.112 64.1707C293.216 64.1395 293.311 64.0831 293.387 64.0062L298.37 59.0232C298.493 58.9002 298.562 58.7331 298.562 58.5592C298.562 58.3853 298.493 58.2183 298.37 58.0952L296.467 56.1923C296.211 55.9359 295.795 55.9359 295.539 56.1923L290.556 61.1752C290.479 61.2521 290.423 61.3466 290.392 61.4508ZM291.601 61.9861L296.003 57.5842L296.978 58.5592L292.576 62.9611L291.184 63.3785L291.601 61.9861Z" fill="url(#paint0_linear)"/>
<path d="M297.906 62.125C297.544 62.125 297.25 62.4189 297.25 62.7812V67.1562C297.25 67.7595 296.759 68.25 296.156 68.25H287.406C286.803 68.25 286.312 67.7595 286.312 67.1562V58.4062C286.312 57.803 286.803 57.3125 287.406 57.3125H291.781C292.144 57.3125 292.438 57.0186 292.438 56.6562C292.438 56.2939 292.144 56 291.781 56H287.406C286.079 56 285 57.0796 285 58.4062V67.1562C285 68.4829 286.079 69.5625 287.406 69.5625H296.156C297.483 69.5625 298.562 68.4829 298.562 67.1562V62.7812C298.562 62.4189 298.269 62.125 297.906 62.125Z" fill="url(#paint1_linear)"/>
<g filter="url(#filter1_d)">
<rect x="50" y="95" width="277" height="49" rx="16" fill="white"/>
</g>
<path d="M83.84 111.05V111.98H80.89V114.03H83.19V114.96H80.89V118H79.75V111.05H83.84ZM86.0365 113.29C86.2032 113.01 86.4232 112.793 86.6965 112.64C86.9765 112.48 87.3065 112.4 87.6865 112.4V113.58H87.3965C86.9498 113.58 86.6098 113.693 86.3765 113.92C86.1498 114.147 86.0365 114.54 86.0365 115.1V118H84.8965V112.49H86.0365V113.29ZM89.3144 111.76C89.1077 111.76 88.9344 111.69 88.7944 111.55C88.6544 111.41 88.5844 111.237 88.5844 111.03C88.5844 110.823 88.6544 110.65 88.7944 110.51C88.9344 110.37 89.1077 110.3 89.3144 110.3C89.5144 110.3 89.6844 110.37 89.8244 110.51C89.9644 110.65 90.0344 110.823 90.0344 111.03C90.0344 111.237 89.9644 111.41 89.8244 111.55C89.6844 111.69 89.5144 111.76 89.3144 111.76ZM89.8744 112.49V118H88.7344V112.49H89.8744ZM96.4211 115.11C96.4211 115.317 96.4078 115.503 96.3811 115.67H92.1711C92.2044 116.11 92.3678 116.463 92.6611 116.73C92.9544 116.997 93.3144 117.13 93.7411 117.13C94.3544 117.13 94.7878 116.873 95.0411 116.36H96.2711C96.1044 116.867 95.8011 117.283 95.3611 117.61C94.9278 117.93 94.3878 118.09 93.7411 118.09C93.2144 118.09 92.7411 117.973 92.3211 117.74C91.9078 117.5 91.5811 117.167 91.3411 116.74C91.1078 116.307 90.9911 115.807 90.9911 115.24C90.9911 114.673 91.1044 114.177 91.3311 113.75C91.5644 113.317 91.8878 112.983 92.3011 112.75C92.7211 112.517 93.2011 112.4 93.7411 112.4C94.2611 112.4 94.7244 112.513 95.1311 112.74C95.5378 112.967 95.8544 113.287 96.0811 113.7C96.3078 114.107 96.4211 114.577 96.4211 115.11ZM95.2311 114.75C95.2244 114.33 95.0744 113.993 94.7811 113.74C94.4878 113.487 94.1244 113.36 93.6911 113.36C93.2978 113.36 92.9611 113.487 92.6811 113.74C92.4011 113.987 92.2344 114.323 92.1811 114.75H95.2311ZM100.323 112.4C100.756 112.4 101.143 112.49 101.483 112.67C101.83 112.85 102.1 113.117 102.293 113.47C102.486 113.823 102.583 114.25 102.583 114.75V118H101.453V114.92C101.453 114.427 101.33 114.05 101.083 113.79C100.836 113.523 100.5 113.39 100.073 113.39C99.6463 113.39 99.3063 113.523 99.053 113.79C98.8063 114.05 98.683 114.427 98.683 114.92V118H97.543V112.49H98.683V113.12C98.8696 112.893 99.1063 112.717 99.393 112.59C99.6863 112.463 99.9963 112.4 100.323 112.4ZM103.657 115.22C103.657 114.667 103.77 114.177 103.997 113.75C104.23 113.323 104.544 112.993 104.937 112.76C105.337 112.52 105.78 112.4 106.267 112.4C106.627 112.4 106.98 112.48 107.327 112.64C107.68 112.793 107.96 113 108.167 113.26V110.6H109.317V118H108.167V117.17C107.98 117.437 107.72 117.657 107.387 117.83C107.06 118.003 106.684 118.09 106.257 118.09C105.777 118.09 105.337 117.97 104.937 117.73C104.544 117.483 104.23 117.143 103.997 116.71C103.77 116.27 103.657 115.773 103.657 115.22ZM108.167 115.24C108.167 114.86 108.087 114.53 107.927 114.25C107.774 113.97 107.57 113.757 107.317 113.61C107.064 113.463 106.79 113.39 106.497 113.39C106.204 113.39 105.93 113.463 105.677 113.61C105.424 113.75 105.217 113.96 105.057 114.24C104.904 114.513 104.827 114.84 104.827 115.22C104.827 115.6 104.904 115.933 105.057 116.22C105.217 116.507 105.424 116.727 105.677 116.88C105.937 117.027 106.21 117.1 106.497 117.1C106.79 117.1 107.064 117.027 107.317 116.88C107.57 116.733 107.774 116.52 107.927 116.24C108.087 115.953 108.167 115.62 108.167 115.24ZM110.994 111.05H112.234L111.184 113.43H110.384L110.994 111.05ZM115.236 118.09C114.803 118.09 114.413 118.013 114.066 117.86C113.726 117.7 113.456 117.487 113.256 117.22C113.056 116.947 112.95 116.643 112.936 116.31H114.116C114.136 116.543 114.246 116.74 114.446 116.9C114.653 117.053 114.91 117.13 115.216 117.13C115.536 117.13 115.783 117.07 115.956 116.95C116.136 116.823 116.226 116.663 116.226 116.47C116.226 116.263 116.126 116.11 115.926 116.01C115.733 115.91 115.423 115.8 114.996 115.68C114.583 115.567 114.246 115.457 113.986 115.35C113.726 115.243 113.5 115.08 113.306 114.86C113.12 114.64 113.026 114.35 113.026 113.99C113.026 113.697 113.113 113.43 113.286 113.19C113.46 112.943 113.706 112.75 114.026 112.61C114.353 112.47 114.726 112.4 115.146 112.4C115.773 112.4 116.276 112.56 116.656 112.88C117.043 113.193 117.25 113.623 117.276 114.17H116.136C116.116 113.923 116.016 113.727 115.836 113.58C115.656 113.433 115.413 113.36 115.106 113.36C114.806 113.36 114.576 113.417 114.416 113.53C114.256 113.643 114.176 113.793 114.176 113.98C114.176 114.127 114.23 114.25 114.336 114.35C114.443 114.45 114.573 114.53 114.726 114.59C114.88 114.643 115.106 114.713 115.406 114.8C115.806 114.907 116.133 115.017 116.386 115.13C116.646 115.237 116.87 115.397 117.056 115.61C117.243 115.823 117.34 116.107 117.346 116.46C117.346 116.773 117.26 117.053 117.086 117.3C116.913 117.547 116.666 117.74 116.346 117.88C116.033 118.02 115.663 118.09 115.236 118.09ZM124.896 114.43C125.269 114.497 125.586 114.693 125.846 115.02C126.106 115.347 126.236 115.717 126.236 116.13C126.236 116.483 126.142 116.803 125.956 117.09C125.776 117.37 125.512 117.593 125.166 117.76C124.819 117.92 124.416 118 123.956 118H121.176V111.05H123.826C124.299 111.05 124.706 111.13 125.046 111.29C125.386 111.45 125.642 111.667 125.816 111.94C125.989 112.207 126.076 112.507 126.076 112.84C126.076 113.24 125.969 113.573 125.756 113.84C125.542 114.107 125.256 114.303 124.896 114.43ZM122.316 113.97H123.726C124.099 113.97 124.389 113.887 124.596 113.72C124.809 113.547 124.916 113.3 124.916 112.98C124.916 112.667 124.809 112.423 124.596 112.25C124.389 112.07 124.099 111.98 123.726 111.98H122.316V113.97ZM123.856 117.07C124.242 117.07 124.546 116.977 124.766 116.79C124.986 116.603 125.096 116.343 125.096 116.01C125.096 115.67 124.979 115.4 124.746 115.2C124.512 115 124.202 114.9 123.816 114.9H122.316V117.07H123.856ZM128.055 111.76C127.848 111.76 127.675 111.69 127.535 111.55C127.395 111.41 127.325 111.237 127.325 111.03C127.325 110.823 127.395 110.65 127.535 110.51C127.675 110.37 127.848 110.3 128.055 110.3C128.255 110.3 128.425 110.37 128.565 110.51C128.705 110.65 128.775 110.823 128.775 111.03C128.775 111.237 128.705 111.41 128.565 111.55C128.425 111.69 128.255 111.76 128.055 111.76ZM128.615 112.49V118H127.475V112.49H128.615ZM131.251 113.29C131.418 113.01 131.638 112.793 131.911 112.64C132.191 112.48 132.521 112.4 132.901 112.4V113.58H132.611C132.165 113.58 131.825 113.693 131.591 113.92C131.365 114.147 131.251 114.54 131.251 115.1V118H130.111V112.49H131.251V113.29ZM135.279 113.42V116.47C135.279 116.677 135.326 116.827 135.419 116.92C135.519 117.007 135.686 117.05 135.919 117.05H136.619V118H135.719C135.206 118 134.813 117.88 134.539 117.64C134.266 117.4 134.129 117.01 134.129 116.47V113.42H133.479V112.49H134.129V111.12H135.279V112.49H136.619V113.42H135.279ZM140.52 112.4C140.94 112.4 141.313 112.49 141.64 112.67C141.973 112.85 142.233 113.117 142.42 113.47C142.613 113.823 142.71 114.25 142.71 114.75V118H141.58V114.92C141.58 114.427 141.457 114.05 141.21 113.79C140.963 113.523 140.627 113.39 140.2 113.39C139.773 113.39 139.433 113.523 139.18 113.79C138.933 114.05 138.81 114.427 138.81 114.92V118H137.67V110.6H138.81V113.13C139.003 112.897 139.247 112.717 139.54 112.59C139.84 112.463 140.167 112.4 140.52 112.4ZM143.784 115.22C143.784 114.667 143.897 114.177 144.124 113.75C144.357 113.323 144.671 112.993 145.064 112.76C145.464 112.52 145.907 112.4 146.394 112.4C146.754 112.4 147.107 112.48 147.454 112.64C147.807 112.793 148.087 113 148.294 113.26V110.6H149.444V118H148.294V117.17C148.107 117.437 147.847 117.657 147.514 117.83C147.187 118.003 146.811 118.09 146.384 118.09C145.904 118.09 145.464 117.97 145.064 117.73C144.671 117.483 144.357 117.143 144.124 116.71C143.897 116.27 143.784 115.773 143.784 115.22ZM148.294 115.24C148.294 114.86 148.214 114.53 148.054 114.25C147.901 113.97 147.697 113.757 147.444 113.61C147.191 113.463 146.917 113.39 146.624 113.39C146.331 113.39 146.057 113.463 145.804 113.61C145.551 113.75 145.344 113.96 145.184 114.24C145.031 114.513 144.954 114.84 144.954 115.22C144.954 115.6 145.031 115.933 145.184 116.22C145.344 116.507 145.551 116.727 145.804 116.88C146.064 117.027 146.337 117.1 146.624 117.1C146.917 117.1 147.191 117.027 147.444 116.88C147.697 116.733 147.901 116.52 148.054 116.24C148.214 115.953 148.294 115.62 148.294 115.24ZM150.561 115.22C150.561 114.667 150.675 114.177 150.901 113.75C151.135 113.323 151.448 112.993 151.841 112.76C152.241 112.52 152.681 112.4 153.161 112.4C153.595 112.4 153.971 112.487 154.291 112.66C154.618 112.827 154.878 113.037 155.071 113.29V112.49H156.221V118H155.071V117.18C154.878 117.44 154.615 117.657 154.281 117.83C153.948 118.003 153.568 118.09 153.141 118.09C152.668 118.09 152.235 117.97 151.841 117.73C151.448 117.483 151.135 117.143 150.901 116.71C150.675 116.27 150.561 115.773 150.561 115.22ZM155.071 115.24C155.071 114.86 154.991 114.53 154.831 114.25C154.678 113.97 154.475 113.757 154.221 113.61C153.968 113.463 153.695 113.39 153.401 113.39C153.108 113.39 152.835 113.463 152.581 113.61C152.328 113.75 152.121 113.96 151.961 114.24C151.808 114.513 151.731 114.84 151.731 115.22C151.731 115.6 151.808 115.933 151.961 116.22C152.121 116.507 152.328 116.727 152.581 116.88C152.841 117.027 153.115 117.1 153.401 117.1C153.695 117.1 153.968 117.027 154.221 116.88C154.475 116.733 154.678 116.52 154.831 116.24C154.991 115.953 155.071 115.62 155.071 115.24ZM162.679 112.49L159.299 120.59H158.119L159.239 117.91L157.069 112.49H158.339L159.889 116.69L161.499 112.49H162.679ZM170.997 113.12C170.997 113.473 170.913 113.807 170.747 114.12C170.58 114.433 170.313 114.69 169.947 114.89C169.58 115.083 169.11 115.18 168.537 115.18H167.277V118H166.137V111.05H168.537C169.07 111.05 169.52 111.143 169.887 111.33C170.26 111.51 170.537 111.757 170.717 112.07C170.903 112.383 170.997 112.733 170.997 113.12ZM168.537 114.25C168.97 114.25 169.293 114.153 169.507 113.96C169.72 113.76 169.827 113.48 169.827 113.12C169.827 112.36 169.397 111.98 168.537 111.98H167.277V114.25H168.537ZM171.704 115.22C171.704 114.667 171.817 114.177 172.044 113.75C172.277 113.323 172.591 112.993 172.984 112.76C173.384 112.52 173.824 112.4 174.304 112.4C174.737 112.4 175.114 112.487 175.434 112.66C175.761 112.827 176.021 113.037 176.214 113.29V112.49H177.364V118H176.214V117.18C176.021 117.44 175.757 117.657 175.424 117.83C175.091 118.003 174.711 118.09 174.284 118.09C173.811 118.09 173.377 117.97 172.984 117.73C172.591 117.483 172.277 117.143 172.044 116.71C171.817 116.27 171.704 115.773 171.704 115.22ZM176.214 115.24C176.214 114.86 176.134 114.53 175.974 114.25C175.821 113.97 175.617 113.757 175.364 113.61C175.111 113.463 174.837 113.39 174.544 113.39C174.251 113.39 173.977 113.463 173.724 113.61C173.471 113.75 173.264 113.96 173.104 114.24C172.951 114.513 172.874 114.84 172.874 115.22C172.874 115.6 172.951 115.933 173.104 116.22C173.264 116.507 173.471 116.727 173.724 116.88C173.984 117.027 174.257 117.1 174.544 117.1C174.837 117.1 175.111 117.027 175.364 116.88C175.617 116.733 175.821 116.52 175.974 116.24C176.134 115.953 176.214 115.62 176.214 115.24ZM180.001 113.29C180.168 113.01 180.388 112.793 180.661 112.64C180.941 112.48 181.271 112.4 181.651 112.4V113.58H181.361C180.915 113.58 180.575 113.693 180.341 113.92C180.115 114.147 180.001 114.54 180.001 115.1V118H178.861V112.49H180.001V113.29ZM184.029 113.42V116.47C184.029 116.677 184.076 116.827 184.169 116.92C184.269 117.007 184.436 117.05 184.669 117.05H185.369V118H184.469C183.956 118 183.563 117.88 183.289 117.64C183.016 117.4 182.879 117.01 182.879 116.47V113.42H182.229V112.49H182.879V111.12H184.029V112.49H185.369V113.42H184.029ZM191.38 112.49L188 120.59H186.82L187.94 117.91L185.77 112.49H187.04L188.59 116.69L190.2 112.49H191.38Z" fill="#4B4B4B"/>
<path d="M79.408 128.416C80.0853 127.872 80.616 127.427 81 127.08C81.384 126.728 81.7067 126.363 81.968 125.984C82.2347 125.6 82.368 125.224 82.368 124.856C82.368 124.509 82.2827 124.237 82.112 124.04C81.9467 123.837 81.6773 123.736 81.304 123.736C80.9413 123.736 80.6587 123.851 80.456 124.08C80.2587 124.304 80.152 124.605 80.136 124.984H79.432C79.4533 124.387 79.6347 123.925 79.976 123.6C80.3173 123.275 80.7573 123.112 81.296 123.112C81.8453 123.112 82.28 123.264 82.6 123.568C82.9253 123.872 83.088 124.291 83.088 124.824C83.088 125.267 82.9547 125.699 82.688 126.12C82.4267 126.536 82.128 126.904 81.792 127.224C81.456 127.539 81.0267 127.907 80.504 128.328H83.256V128.936H79.408V128.416ZM83.9056 123.88V123.216H85.4096V129H84.6736V123.88H83.9056ZM87.0121 129.048C86.8734 129.048 86.7561 129 86.6601 128.904C86.5641 128.808 86.5161 128.691 86.5161 128.552C86.5161 128.413 86.5641 128.296 86.6601 128.2C86.7561 128.104 86.8734 128.056 87.0121 128.056C87.1454 128.056 87.2574 128.104 87.3481 128.2C87.4441 128.296 87.4921 128.413 87.4921 128.552C87.4921 128.691 87.4441 128.808 87.3481 128.904C87.2574 129 87.1454 129.048 87.0121 129.048ZM88.3238 124.672C88.3611 124.181 88.5504 123.797 88.8918 123.52C89.2331 123.243 89.6758 123.104 90.2198 123.104C90.5824 123.104 90.8944 123.171 91.1558 123.304C91.4224 123.432 91.6224 123.608 91.7558 123.832C91.8944 124.056 91.9638 124.309 91.9638 124.592C91.9638 124.923 91.8678 125.208 91.6758 125.448C91.4891 125.688 91.2438 125.843 90.9398 125.912V125.952C91.2864 126.037 91.5611 126.205 91.7638 126.456C91.9664 126.707 92.0677 127.035 92.0677 127.44C92.0677 127.744 91.9984 128.019 91.8598 128.264C91.7211 128.504 91.5131 128.693 91.2358 128.832C90.9584 128.971 90.6251 129.04 90.2358 129.04C89.6704 129.04 89.2064 128.893 88.8438 128.6C88.4811 128.301 88.2784 127.88 88.2358 127.336H88.9398C88.9771 127.656 89.1078 127.917 89.3318 128.12C89.5558 128.323 89.8544 128.424 90.2278 128.424C90.6011 128.424 90.8838 128.328 91.0758 128.136C91.2731 127.939 91.3718 127.685 91.3718 127.376C91.3718 126.976 91.2384 126.688 90.9718 126.512C90.7051 126.336 90.3024 126.248 89.7638 126.248H89.5798V125.64H89.7718C90.2624 125.635 90.6331 125.555 90.8838 125.4C91.1344 125.24 91.2598 124.995 91.2598 124.664C91.2598 124.381 91.1664 124.155 90.9798 123.984C90.7984 123.813 90.5371 123.728 90.1957 123.728C89.8651 123.728 89.5984 123.813 89.3958 123.984C89.1931 124.155 89.0731 124.384 89.0358 124.672H88.3238ZM93.0507 126.048C93.0507 125.131 93.2 124.416 93.4987 123.904C93.7974 123.387 94.32 123.128 95.0667 123.128C95.808 123.128 96.328 123.387 96.6267 123.904C96.9254 124.416 97.0747 125.131 97.0747 126.048C97.0747 126.981 96.9254 127.707 96.6267 128.224C96.328 128.741 95.808 129 95.0667 129C94.32 129 93.7974 128.741 93.4987 128.224C93.2 127.707 93.0507 126.981 93.0507 126.048ZM96.3547 126.048C96.3547 125.584 96.3227 125.192 96.2587 124.872C96.2 124.547 96.0747 124.285 95.8827 124.088C95.696 123.891 95.424 123.792 95.0667 123.792C94.704 123.792 94.4267 123.891 94.2347 124.088C94.048 124.285 93.9227 124.547 93.8587 124.872C93.8 125.192 93.7707 125.584 93.7707 126.048C93.7707 126.528 93.8 126.931 93.8587 127.256C93.9227 127.581 94.048 127.843 94.2347 128.04C94.4267 128.237 94.704 128.336 95.0667 128.336C95.424 128.336 95.696 128.237 95.8827 128.04C96.0747 127.843 96.2 127.581 96.2587 127.256C96.3227 126.931 96.3547 126.528 96.3547 126.048Z" fill="#757575"/>
<path d="M290.392 118.451L289.577 121.169C289.507 121.4 289.571 121.65 289.741 121.821C289.866 121.946 290.034 122.013 290.205 122.013C290.268 122.013 290.332 122.004 290.394 121.985L293.112 121.171C293.216 121.139 293.311 121.083 293.387 121.006L298.37 116.023C298.493 115.9 298.562 115.733 298.562 115.559C298.562 115.385 298.493 115.218 298.37 115.095L296.467 113.192C296.211 112.936 295.795 112.936 295.539 113.192L290.556 118.175C290.479 118.252 290.423 118.347 290.392 118.451ZM291.601 118.986L296.003 114.584L296.978 115.559L292.576 119.961L291.184 120.379L291.601 118.986Z" fill="url(#paint2_linear)"/>
<path d="M297.906 119.125C297.544 119.125 297.25 119.419 297.25 119.781V124.156C297.25 124.76 296.759 125.25 296.156 125.25H287.406C286.803 125.25 286.312 124.76 286.312 124.156V115.406C286.312 114.803 286.803 114.312 287.406 114.312H291.781C292.144 114.312 292.438 114.019 292.438 113.656C292.438 113.294 292.144 113 291.781 113H287.406C286.079 113 285 114.08 285 115.406V124.156C285 125.483 286.079 126.562 287.406 126.562H296.156C297.483 126.562 298.562 125.483 298.562 124.156V119.781C298.562 119.419 298.269 119.125 297.906 119.125Z" fill="url(#paint3_linear)"/>
<defs>
<filter id="filter0_d" x="10" y="8" width="357" height="129" filterUnits="userSpaceOnUse" color-interpolation-filters="sRGB">
<feFlood flood-opacity="0" result="BackgroundImageFix"/>
<feColorMatrix in="SourceAlpha" type="matrix" values="0 0 0 0 0 0 0 0 0 0 0 0 0 0 0 0 0 0 127 0" result="hardAlpha"/>
<feOffset dy="10"/>
<feGaussianBlur stdDeviation="20"/>
<feColorMatrix type="matrix" values="0 0 0 0 0.0196078 0 0 0 0 0.0196078 0 0 0 0 0.0196078 0 0 0 0.07 0"/>
<feBlend mode="normal" in2="BackgroundImageFix" result="effect1_dropShadow"/>
<feBlend mode="normal" in="SourceGraphic" in2="effect1_dropShadow" result="shape"/>
</filter>
<filter id="filter1_d" x="10" y="65" width="357" height="129" filterUnits="userSpaceOnUse" color-interpolation-filters="sRGB">
<feFlood flood-opacity="0" result="BackgroundImageFix"/>
<feColorMatrix in="SourceAlpha" type="matrix" values="0 0 0 0 0 0 0 0 0 0 0 0 0 0 0 0 0 0 127 0" result="hardAlpha"/>
<feOffset dy="10"/>
<feGaussianBlur stdDeviation="20"/>
<feColorMatrix type="matrix" values="0 0 0 0 0.0196078 0 0 0 0 0.0196078 0 0 0 0 0.0196078 0 0 0 0.07 0"/>
<feBlend mode="normal" in2="BackgroundImageFix" result="effect1_dropShadow"/>
<feBlend mode="normal" in="SourceGraphic" in2="effect1_dropShadow" result="shape"/>
</filter>
<linearGradient id="paint0_linear" x1="289.012" y1="56.9263" x2="299.681" y2="56.9263" gradientUnits="userSpaceOnUse">
<stop stop-color="#EAAFFF"/>
<stop offset="0.8155" stop-color="#A58FFF"/>
</linearGradient>
<linearGradient id="paint1_linear" x1="284.192" y1="57.3939" x2="300.245" y2="57.3939" gradientUnits="userSpaceOnUse">
<stop stop-color="#EAAFFF"/>
<stop offset="0.8155" stop-color="#A58FFF"/>
</linearGradient>
<linearGradient id="paint2_linear" x1="289.012" y1="113.926" x2="299.681" y2="113.926" gradientUnits="userSpaceOnUse">
<stop stop-color="#EAAFFF"/>
<stop offset="0.8155" stop-color="#A58FFF"/>
</linearGradient>
<linearGradient id="paint3_linear" x1="284.192" y1="114.394" x2="300.245" y2="114.394" gradientUnits="userSpaceOnUse">
<stop stop-color="#EAAFFF"/>
<stop offset="0.8155" stop-color="#A58FFF"/>
</linearGradient>
</defs>
</svg>
