<svg width="367" height="251" viewBox="0 0 367 251" fill="none" xmlns="http://www.w3.org/2000/svg">
<path d="M6.51028 27.464V33H5.78228V28.872L3.94228 33H3.43028L1.58228 28.864V33H0.854281V27.464H1.63828L3.68628 32.04L5.73428 27.464H6.51028ZM10.2729 33.056C9.75557 33.056 9.28357 32.936 8.85691 32.696C8.43024 32.4507 8.09157 32.112 7.84091 31.68C7.59557 31.2427 7.47291 30.752 7.47291 30.208C7.47291 29.664 7.59557 29.176 7.84091 28.744C8.09157 28.3067 8.43024 27.968 8.85691 27.728C9.28357 27.4827 9.75557 27.36 10.2729 27.36C10.7956 27.36 11.2702 27.4827 11.6969 27.728C12.1236 27.968 12.4596 28.304 12.7049 28.736C12.9502 29.168 13.0729 29.6587 13.0729 30.208C13.0729 30.7573 12.9502 31.248 12.7049 31.68C12.4596 32.112 12.1236 32.4507 11.6969 32.696C11.2702 32.936 10.7956 33.056 10.2729 33.056ZM10.2729 32.424C10.6622 32.424 11.0116 32.3333 11.3209 32.152C11.6356 31.9707 11.8809 31.712 12.0569 31.376C12.2382 31.04 12.3289 30.6507 12.3289 30.208C12.3289 29.76 12.2382 29.3707 12.0569 29.04C11.8809 28.704 11.6382 28.4453 11.3289 28.264C11.0196 28.0827 10.6676 27.992 10.2729 27.992C9.87824 27.992 9.52624 28.0827 9.21691 28.264C8.90757 28.4453 8.66224 28.704 8.48091 29.04C8.30491 29.3707 8.21691 29.76 8.21691 30.208C8.21691 30.6507 8.30491 31.04 8.48091 31.376C8.66224 31.712 8.90757 31.9707 9.21691 32.152C9.53157 32.3333 9.88357 32.424 10.2729 32.424ZM18.418 33H17.69L14.762 28.56V33H14.034V27.416H14.762L17.69 31.848V27.416H18.418V33ZM21.395 27.424C22.003 27.424 22.5283 27.5387 22.971 27.768C23.419 27.992 23.7603 28.3147 23.995 28.736C24.235 29.1573 24.355 29.6533 24.355 30.224C24.355 30.7947 24.235 31.2907 23.995 31.712C23.7603 32.128 23.419 32.448 22.971 32.672C22.5283 32.8907 22.003 33 21.395 33H19.659V27.424H21.395ZM21.395 32.4C22.115 32.4 22.6643 32.2107 23.043 31.832C23.4216 31.448 23.611 30.912 23.611 30.224C23.611 29.5307 23.419 28.9893 23.035 28.6C22.6563 28.2107 22.1096 28.016 21.395 28.016H20.387V32.4H21.395ZM28.6112 31.76H26.1792L25.7312 33H24.9632L26.9792 27.456H27.8192L29.8272 33H29.0592L28.6112 31.76ZM28.4032 31.168L27.3952 28.352L26.3872 31.168H28.4032ZM34.6098 27.424L32.7938 30.896V33H32.0658V30.896L30.2418 27.424H31.0498L32.4258 30.248L33.8018 27.424H34.6098Z" fill="#4B4B4B"/>
<path d="M7.36316 16.208C8.89916 14.928 10.1232 13.864 11.0352 13.016C11.9472 12.152 12.7072 11.256 13.3152 10.328C13.9232 9.4 14.2272 8.488 14.2272 7.592C14.2272 6.776 14.0352 6.136 13.6512 5.672C13.2672 5.208 12.6752 4.976 11.8752 4.976C11.0752 4.976 10.4592 5.248 10.0272 5.792C9.59516 6.32 9.37116 7.048 9.35516 7.976H6.09116C6.15516 6.056 6.72316 4.6 7.79516 3.608C8.88316 2.616 10.2592 2.12 11.9232 2.12C13.7472 2.12 15.1472 2.608 16.1232 3.584C17.0992 4.544 17.5872 5.816 17.5872 7.4C17.5872 8.648 17.2512 9.84 16.5792 10.976C15.9072 12.112 15.1392 13.104 14.2752 13.952C13.4112 14.784 12.2832 15.792 10.8912 16.976H17.9712V19.76H6.11516V17.264L7.36316 16.208ZM31.2244 5.048L24.8404 20H21.4324L27.8644 5.432H19.6564V2.552H31.2244V5.048Z" fill="#4B4B4B"/>
<path d="M48.5566 12L50 13.4434L51.4434 12L50 10.5566L48.5566 12ZM327 12.25C327.138 12.25 327.25 12.1381 327.25 12C327.25 11.8619 327.138 11.75 327 11.75V12.25ZM50 12.25H327V11.75H50V12.25Z" fill="#4B4B4B"/>
<g filter="url(#filter0_d)">
<rect x="50" y="38" width="277" height="49" rx="16" fill="url(#paint0_linear)"/>
</g>
<path d="M87.07 54.05V61H85.93V56.24L83.81 61H83.02L80.89 56.24V61H79.75V54.05H80.98L83.42 59.5L85.85 54.05H87.07ZM89.1484 54.76C88.9417 54.76 88.7684 54.69 88.6284 54.55C88.4884 54.41 88.4184 54.2367 88.4184 54.03C88.4184 53.8233 88.4884 53.65 88.6284 53.51C88.7684 53.37 88.9417 53.3 89.1484 53.3C89.3484 53.3 89.5184 53.37 89.6584 53.51C89.7984 53.65 89.8684 53.8233 89.8684 54.03C89.8684 54.2367 89.7984 54.41 89.6584 54.55C89.5184 54.69 89.3484 54.76 89.1484 54.76ZM89.7084 55.49V61H88.5684V55.49H89.7084ZM90.8251 58.22C90.8251 57.6667 90.9384 57.1767 91.1651 56.75C91.3984 56.3233 91.7117 55.9933 92.1051 55.76C92.5051 55.52 92.9484 55.4 93.4351 55.4C93.7951 55.4 94.1484 55.48 94.4951 55.64C94.8484 55.7933 95.1284 56 95.3351 56.26V53.6H96.4851V61H95.3351V60.17C95.1484 60.4367 94.8884 60.6567 94.5551 60.83C94.2284 61.0033 93.8517 61.09 93.4251 61.09C92.9451 61.09 92.5051 60.97 92.1051 60.73C91.7117 60.4833 91.3984 60.1433 91.1651 59.71C90.9384 59.27 90.8251 58.7733 90.8251 58.22ZM95.3351 58.24C95.3351 57.86 95.2551 57.53 95.0951 57.25C94.9417 56.97 94.7384 56.7567 94.4851 56.61C94.2317 56.4633 93.9584 56.39 93.6651 56.39C93.3717 56.39 93.0984 56.4633 92.8451 56.61C92.5917 56.75 92.3851 56.96 92.2251 57.24C92.0717 57.5133 91.9951 57.84 91.9951 58.22C91.9951 58.6 92.0717 58.9333 92.2251 59.22C92.3851 59.5067 92.5917 59.7267 92.8451 59.88C93.1051 60.0267 93.3784 60.1 93.6651 60.1C93.9584 60.1 94.2317 60.0267 94.4851 59.88C94.7384 59.7333 94.9417 59.52 95.0951 59.24C95.2551 58.9533 95.3351 58.62 95.3351 58.24ZM99.3124 56.42V59.47C99.3124 59.6767 99.3591 59.8267 99.4524 59.92C99.5524 60.0067 99.7191 60.05 99.9524 60.05H100.652V61H99.7524C99.2391 61 98.8458 60.88 98.5724 60.64C98.2991 60.4 98.1624 60.01 98.1624 59.47V56.42H97.5124V55.49H98.1624V54.12H99.3124V55.49H100.652V56.42H99.3124ZM106.753 58.11C106.753 58.3167 106.74 58.5033 106.713 58.67H102.503C102.536 59.11 102.7 59.4633 102.993 59.73C103.286 59.9967 103.646 60.13 104.073 60.13C104.686 60.13 105.12 59.8733 105.373 59.36H106.603C106.436 59.8667 106.133 60.2833 105.693 60.61C105.26 60.93 104.72 61.09 104.073 61.09C103.546 61.09 103.073 60.9733 102.653 60.74C102.24 60.5 101.913 60.1667 101.673 59.74C101.44 59.3067 101.323 58.8067 101.323 58.24C101.323 57.6733 101.436 57.1767 101.663 56.75C101.896 56.3167 102.22 55.9833 102.633 55.75C103.053 55.5167 103.533 55.4 104.073 55.4C104.593 55.4 105.056 55.5133 105.463 55.74C105.87 55.9667 106.186 56.2867 106.413 56.7C106.64 57.1067 106.753 57.5767 106.753 58.11ZM105.563 57.75C105.556 57.33 105.406 56.9933 105.113 56.74C104.82 56.4867 104.456 56.36 104.023 56.36C103.63 56.36 103.293 56.4867 103.013 56.74C102.733 56.9867 102.566 57.3233 102.513 57.75H105.563ZM109.015 56.29C109.182 56.01 109.402 55.7933 109.675 55.64C109.955 55.48 110.285 55.4 110.665 55.4V56.58H110.375C109.928 56.58 109.588 56.6933 109.355 56.92C109.128 57.1467 109.015 57.54 109.015 58.1V61H107.875V55.49H109.015V56.29ZM118.383 55.4C118.816 55.4 119.203 55.49 119.543 55.67C119.89 55.85 120.16 56.1167 120.353 56.47C120.553 56.8233 120.653 57.25 120.653 57.75V61H119.523V57.92C119.523 57.4267 119.4 57.05 119.153 56.79C118.906 56.5233 118.57 56.39 118.143 56.39C117.716 56.39 117.376 56.5233 117.123 56.79C116.876 57.05 116.753 57.4267 116.753 57.92V61H115.623V57.92C115.623 57.4267 115.5 57.05 115.253 56.79C115.006 56.5233 114.67 56.39 114.243 56.39C113.816 56.39 113.476 56.5233 113.223 56.79C112.976 57.05 112.853 57.4267 112.853 57.92V61H111.713V55.49H112.853V56.12C113.04 55.8933 113.276 55.7167 113.563 55.59C113.85 55.4633 114.156 55.4 114.483 55.4C114.923 55.4 115.316 55.4933 115.663 55.68C116.01 55.8667 116.276 56.1367 116.463 56.49C116.63 56.1567 116.89 55.8933 117.243 55.7C117.596 55.5 117.976 55.4 118.383 55.4ZM125.841 54.97V57.01H128.241V57.94H125.841V60.07H128.541V61H124.701V54.04H128.541V54.97H125.841ZM132.305 58.21L134.085 61H132.795L131.605 59.13L130.485 61H129.295L131.075 58.29L129.295 55.49H130.585L131.775 57.36L132.895 55.49H134.085L132.305 58.21ZM134.556 58.22C134.556 57.6667 134.669 57.1767 134.896 56.75C135.129 56.3233 135.442 55.9933 135.836 55.76C136.236 55.52 136.676 55.4 137.156 55.4C137.589 55.4 137.966 55.4867 138.286 55.66C138.612 55.8267 138.872 56.0367 139.066 56.29V55.49H140.216V61H139.066V60.18C138.872 60.44 138.609 60.6567 138.276 60.83C137.942 61.0033 137.562 61.09 137.136 61.09C136.662 61.09 136.229 60.97 135.836 60.73C135.442 60.4833 135.129 60.1433 134.896 59.71C134.669 59.27 134.556 58.7733 134.556 58.22ZM139.066 58.24C139.066 57.86 138.986 57.53 138.826 57.25C138.672 56.97 138.469 56.7567 138.216 56.61C137.962 56.4633 137.689 56.39 137.396 56.39C137.102 56.39 136.829 56.4633 136.576 56.61C136.322 56.75 136.116 56.96 135.956 57.24C135.802 57.5133 135.726 57.84 135.726 58.22C135.726 58.6 135.802 58.9333 135.956 59.22C136.116 59.5067 136.322 59.7267 136.576 59.88C136.836 60.0267 137.109 60.1 137.396 60.1C137.689 60.1 137.962 60.0267 138.216 59.88C138.469 59.7333 138.672 59.52 138.826 59.24C138.986 58.9533 139.066 58.62 139.066 58.24ZM148.383 55.4C148.816 55.4 149.203 55.49 149.543 55.67C149.89 55.85 150.16 56.1167 150.353 56.47C150.553 56.8233 150.653 57.25 150.653 57.75V61H149.523V57.92C149.523 57.4267 149.4 57.05 149.153 56.79C148.906 56.5233 148.57 56.39 148.143 56.39C147.716 56.39 147.376 56.5233 147.123 56.79C146.876 57.05 146.753 57.4267 146.753 57.92V61H145.623V57.92C145.623 57.4267 145.5 57.05 145.253 56.79C145.006 56.5233 144.67 56.39 144.243 56.39C143.816 56.39 143.476 56.5233 143.223 56.79C142.976 57.05 142.853 57.4267 142.853 57.92V61H141.713V55.49H142.853V56.12C143.04 55.8933 143.276 55.7167 143.563 55.59C143.85 55.4633 144.156 55.4 144.483 55.4C144.923 55.4 145.316 55.4933 145.663 55.68C146.01 55.8667 146.276 56.1367 146.463 56.49C146.63 56.1567 146.89 55.8933 147.243 55.7C147.596 55.5 147.976 55.4 148.383 55.4Z" fill="white"/>
<path d="M79.304 66.88V66.216H80.808V72H80.072V66.88H79.304ZM81.8825 70.712V70.16L84.6905 66.272H85.5625V70.08H86.3625V70.712H85.5625V72H84.8425V70.712H81.8825ZM84.8745 67.032L82.7225 70.08H84.8745V67.032ZM87.4418 72.048C87.3031 72.048 87.1858 72 87.0898 71.904C86.9938 71.808 86.9458 71.6907 86.9458 71.552C86.9458 71.4133 86.9938 71.296 87.0898 71.2C87.1858 71.104 87.3031 71.056 87.4418 71.056C87.5751 71.056 87.6871 71.104 87.7778 71.2C87.8738 71.296 87.9218 71.4133 87.9218 71.552C87.9218 71.6907 87.8738 71.808 87.7778 71.904C87.6871 72 87.5751 72.048 87.4418 72.048ZM88.7694 69.048C88.7694 68.1307 88.9188 67.416 89.2174 66.904C89.5161 66.3867 90.0388 66.128 90.7854 66.128C91.5268 66.128 92.0468 66.3867 92.3454 66.904C92.6441 67.416 92.7934 68.1307 92.7934 69.048C92.7934 69.9813 92.6441 70.7067 92.3454 71.224C92.0468 71.7413 91.5268 72 90.7854 72C90.0388 72 89.5161 71.7413 89.2174 71.224C88.9188 70.7067 88.7694 69.9813 88.7694 69.048ZM92.0734 69.048C92.0734 68.584 92.0414 68.192 91.9774 67.872C91.9188 67.5467 91.7934 67.2853 91.6014 67.088C91.4148 66.8907 91.1428 66.792 90.7854 66.792C90.4228 66.792 90.1454 66.8907 89.9534 67.088C89.7668 67.2853 89.6414 67.5467 89.5774 67.872C89.5188 68.192 89.4894 68.584 89.4894 69.048C89.4894 69.528 89.5188 69.9307 89.5774 70.256C89.6414 70.5813 89.7668 70.8427 89.9534 71.04C90.1454 71.2373 90.4228 71.336 90.7854 71.336C91.1428 71.336 91.4148 71.2373 91.6014 71.04C91.7934 70.8427 91.9188 70.5813 91.9774 70.256C92.0414 69.9307 92.0734 69.528 92.0734 69.048ZM93.7929 69.048C93.7929 68.1307 93.9422 67.416 94.2409 66.904C94.5395 66.3867 95.0622 66.128 95.8089 66.128C96.5502 66.128 97.0702 66.3867 97.3689 66.904C97.6675 67.416 97.8169 68.1307 97.8169 69.048C97.8169 69.9813 97.6675 70.7067 97.3689 71.224C97.0702 71.7413 96.5502 72 95.8089 72C95.0622 72 94.5395 71.7413 94.2409 71.224C93.9422 70.7067 93.7929 69.9813 93.7929 69.048ZM97.0969 69.048C97.0969 68.584 97.0649 68.192 97.0009 67.872C96.9422 67.5467 96.8169 67.2853 96.6249 67.088C96.4382 66.8907 96.1662 66.792 95.8089 66.792C95.4462 66.792 95.1689 66.8907 94.9769 67.088C94.7902 67.2853 94.6649 67.5467 94.6009 67.872C94.5422 68.192 94.5129 68.584 94.5129 69.048C94.5129 69.528 94.5422 69.9307 94.6009 70.256C94.6649 70.5813 94.7902 70.8427 94.9769 71.04C95.1689 71.2373 95.4462 71.336 95.8089 71.336C96.1662 71.336 96.4382 71.2373 96.6249 71.04C96.8169 70.8427 96.9422 70.5813 97.0009 70.256C97.0649 69.9307 97.0969 69.528 97.0969 69.048Z" fill="white"/>
<path d="M290.392 61.4508L289.577 64.1685C289.507 64.3997 289.571 64.6504 289.741 64.8209C289.866 64.9457 290.034 65.0132 290.205 65.0132C290.268 65.0132 290.332 65.0042 290.394 64.9854L293.112 64.1707C293.216 64.1395 293.311 64.0831 293.387 64.0062L298.37 59.0232C298.493 58.9002 298.562 58.7331 298.562 58.5592C298.562 58.3853 298.493 58.2183 298.37 58.0952L296.467 56.1923C296.211 55.9359 295.795 55.9359 295.539 56.1923L290.556 61.1752C290.479 61.2521 290.423 61.3466 290.392 61.4508ZM291.601 61.9861L296.003 57.5842L296.978 58.5592L292.576 62.9611L291.184 63.3785L291.601 61.9861Z" fill="white"/>
<path d="M297.906 62.125C297.544 62.125 297.25 62.4189 297.25 62.7812V67.1562C297.25 67.7595 296.759 68.25 296.156 68.25H287.406C286.803 68.25 286.312 67.7595 286.312 67.1562V58.4062C286.312 57.803 286.803 57.3125 287.406 57.3125H291.781C292.144 57.3125 292.438 57.0186 292.438 56.6562C292.438 56.2939 292.144 56 291.781 56H287.406C286.079 56 285 57.0796 285 58.4062V67.1562C285 68.4829 286.079 69.5625 287.406 69.5625H296.156C297.483 69.5625 298.562 68.4829 298.562 67.1562V62.7812C298.562 62.4189 298.269 62.125 297.906 62.125Z" fill="white"/>
<g filter="url(#filter1_d)">
<rect x="50" y="95" width="277" height="49" rx="16" fill="url(#paint1_linear)"/>
</g>
<path d="M79.37 114.51C79.37 113.83 79.5267 113.22 79.84 112.68C80.16 112.14 80.59 111.72 81.13 111.42C81.6767 111.113 82.2733 110.96 82.92 110.96C83.66 110.96 84.3167 111.143 84.89 111.51C85.47 111.87 85.89 112.383 86.15 113.05H84.78C84.6 112.683 84.35 112.41 84.03 112.23C83.71 112.05 83.34 111.96 82.92 111.96C82.46 111.96 82.05 112.063 81.69 112.27C81.33 112.477 81.0467 112.773 80.84 113.16C80.64 113.547 80.54 113.997 80.54 114.51C80.54 115.023 80.64 115.473 80.84 115.86C81.0467 116.247 81.33 116.547 81.69 116.76C82.05 116.967 82.46 117.07 82.92 117.07C83.34 117.07 83.71 116.98 84.03 116.8C84.35 116.62 84.6 116.347 84.78 115.98H86.15C85.89 116.647 85.47 117.16 84.89 117.52C84.3167 117.88 83.66 118.06 82.92 118.06C82.2667 118.06 81.67 117.91 81.13 117.61C80.59 117.303 80.16 116.88 79.84 116.34C79.5267 115.8 79.37 115.19 79.37 114.51ZM88.6244 110.6V118H87.4844V110.6H88.6244ZM95.1711 115.11C95.1711 115.317 95.1578 115.503 95.1311 115.67H90.9211C90.9544 116.11 91.1178 116.463 91.4111 116.73C91.7044 116.997 92.0644 117.13 92.4911 117.13C93.1044 117.13 93.5378 116.873 93.7911 116.36H95.0211C94.8544 116.867 94.5511 117.283 94.1111 117.61C93.6778 117.93 93.1378 118.09 92.4911 118.09C91.9644 118.09 91.4911 117.973 91.0711 117.74C90.6578 117.5 90.3311 117.167 90.0911 116.74C89.8578 116.307 89.7411 115.807 89.7411 115.24C89.7411 114.673 89.8544 114.177 90.0811 113.75C90.3144 113.317 90.6378 112.983 91.0511 112.75C91.4711 112.517 91.9511 112.4 92.4911 112.4C93.0111 112.4 93.4744 112.513 93.8811 112.74C94.2878 112.967 94.6044 113.287 94.8311 113.7C95.0578 114.107 95.1711 114.577 95.1711 115.11ZM93.9811 114.75C93.9744 114.33 93.8244 113.993 93.5311 113.74C93.2378 113.487 92.8744 113.36 92.4411 113.36C92.0478 113.36 91.7111 113.487 91.4311 113.74C91.1511 113.987 90.9844 114.323 90.9311 114.75H93.9811ZM95.913 115.22C95.913 114.667 96.0263 114.177 96.253 113.75C96.4863 113.323 96.7996 112.993 97.193 112.76C97.593 112.52 98.033 112.4 98.513 112.4C98.9463 112.4 99.323 112.487 99.643 112.66C99.9696 112.827 100.23 113.037 100.423 113.29V112.49H101.573V118H100.423V117.18C100.23 117.44 99.9663 117.657 99.633 117.83C99.2996 118.003 98.9196 118.09 98.493 118.09C98.0196 118.09 97.5863 117.97 97.193 117.73C96.7996 117.483 96.4863 117.143 96.253 116.71C96.0263 116.27 95.913 115.773 95.913 115.22ZM100.423 115.24C100.423 114.86 100.343 114.53 100.183 114.25C100.03 113.97 99.8263 113.757 99.573 113.61C99.3196 113.463 99.0463 113.39 98.753 113.39C98.4596 113.39 98.1863 113.463 97.933 113.61C97.6796 113.75 97.473 113.96 97.313 114.24C97.1596 114.513 97.083 114.84 97.083 115.22C97.083 115.6 97.1596 115.933 97.313 116.22C97.473 116.507 97.6796 116.727 97.933 116.88C98.193 117.027 98.4663 117.1 98.753 117.1C99.0463 117.1 99.3196 117.027 99.573 116.88C99.8263 116.733 100.03 116.52 100.183 116.24C100.343 115.953 100.423 115.62 100.423 115.24ZM105.85 112.4C106.284 112.4 106.67 112.49 107.01 112.67C107.357 112.85 107.627 113.117 107.82 113.47C108.014 113.823 108.11 114.25 108.11 114.75V118H106.98V114.92C106.98 114.427 106.857 114.05 106.61 113.79C106.364 113.523 106.027 113.39 105.6 113.39C105.174 113.39 104.834 113.523 104.58 113.79C104.334 114.05 104.21 114.427 104.21 114.92V118H103.07V112.49H104.21V113.12C104.397 112.893 104.634 112.717 104.92 112.59C105.214 112.463 105.524 112.4 105.85 112.4ZM110.144 111.76C109.938 111.76 109.764 111.69 109.624 111.55C109.484 111.41 109.414 111.237 109.414 111.03C109.414 110.823 109.484 110.65 109.624 110.51C109.764 110.37 109.938 110.3 110.144 110.3C110.344 110.3 110.514 110.37 110.654 110.51C110.794 110.65 110.864 110.823 110.864 111.03C110.864 111.237 110.794 111.41 110.654 111.55C110.514 111.69 110.344 111.76 110.144 111.76ZM110.704 112.49V118H109.564V112.49H110.704ZM114.981 112.4C115.415 112.4 115.801 112.49 116.141 112.67C116.488 112.85 116.758 113.117 116.951 113.47C117.145 113.823 117.241 114.25 117.241 114.75V118H116.111V114.92C116.111 114.427 115.988 114.05 115.741 113.79C115.495 113.523 115.158 113.39 114.731 113.39C114.305 113.39 113.965 113.523 113.711 113.79C113.465 114.05 113.341 114.427 113.341 114.92V118H112.201V112.49H113.341V113.12C113.528 112.893 113.765 112.717 114.051 112.59C114.345 112.463 114.655 112.4 114.981 112.4ZM120.915 112.4C121.342 112.4 121.719 112.487 122.045 112.66C122.379 112.827 122.639 113.037 122.825 113.29V112.49H123.975V118.09C123.975 118.597 123.869 119.047 123.655 119.44C123.442 119.84 123.132 120.153 122.725 120.38C122.325 120.607 121.845 120.72 121.285 120.72C120.539 120.72 119.919 120.543 119.425 120.19C118.932 119.843 118.652 119.37 118.585 118.77H119.715C119.802 119.057 119.985 119.287 120.265 119.46C120.552 119.64 120.892 119.73 121.285 119.73C121.745 119.73 122.115 119.59 122.395 119.31C122.682 119.03 122.825 118.623 122.825 118.09V117.17C122.632 117.43 122.369 117.65 122.035 117.83C121.709 118.003 121.335 118.09 120.915 118.09C120.435 118.09 119.995 117.97 119.595 117.73C119.202 117.483 118.889 117.143 118.655 116.71C118.429 116.27 118.315 115.773 118.315 115.22C118.315 114.667 118.429 114.177 118.655 113.75C118.889 113.323 119.202 112.993 119.595 112.76C119.995 112.52 120.435 112.4 120.915 112.4ZM122.825 115.24C122.825 114.86 122.745 114.53 122.585 114.25C122.432 113.97 122.229 113.757 121.975 113.61C121.722 113.463 121.449 113.39 121.155 113.39C120.862 113.39 120.589 113.463 120.335 113.61C120.082 113.75 119.875 113.96 119.715 114.24C119.562 114.513 119.485 114.84 119.485 115.22C119.485 115.6 119.562 115.933 119.715 116.22C119.875 116.507 120.082 116.727 120.335 116.88C120.595 117.027 120.869 117.1 121.155 117.1C121.449 117.1 121.722 117.027 121.975 116.88C122.229 116.733 122.432 116.52 122.585 116.24C122.745 115.953 122.825 115.62 122.825 115.24ZM129.4 113.42V116.47C129.4 116.677 129.447 116.827 129.54 116.92C129.64 117.007 129.807 117.05 130.04 117.05H130.74V118H129.84C129.327 118 128.934 117.88 128.66 117.64C128.387 117.4 128.25 117.01 128.25 116.47V113.42H127.6V112.49H128.25V111.12H129.4V112.49H130.74V113.42H129.4ZM134.641 112.4C135.061 112.4 135.434 112.49 135.761 112.67C136.094 112.85 136.354 113.117 136.541 113.47C136.734 113.823 136.831 114.25 136.831 114.75V118H135.701V114.92C135.701 114.427 135.578 114.05 135.331 113.79C135.084 113.523 134.748 113.39 134.321 113.39C133.894 113.39 133.554 113.523 133.301 113.79C133.054 114.05 132.931 114.427 132.931 114.92V118H131.791V110.6H132.931V113.13C133.124 112.897 133.368 112.717 133.661 112.59C133.961 112.463 134.288 112.4 134.641 112.4ZM143.335 115.11C143.335 115.317 143.322 115.503 143.295 115.67H139.085C139.118 116.11 139.282 116.463 139.575 116.73C139.868 116.997 140.228 117.13 140.655 117.13C141.268 117.13 141.702 116.873 141.955 116.36H143.185C143.018 116.867 142.715 117.283 142.275 117.61C141.842 117.93 141.302 118.09 140.655 118.09C140.128 118.09 139.655 117.973 139.235 117.74C138.822 117.5 138.495 117.167 138.255 116.74C138.022 116.307 137.905 115.807 137.905 115.24C137.905 114.673 138.018 114.177 138.245 113.75C138.478 113.317 138.802 112.983 139.215 112.75C139.635 112.517 140.115 112.4 140.655 112.4C141.175 112.4 141.638 112.513 142.045 112.74C142.452 112.967 142.768 113.287 142.995 113.7C143.222 114.107 143.335 114.577 143.335 115.11ZM142.145 114.75C142.138 114.33 141.988 113.993 141.695 113.74C141.402 113.487 141.038 113.36 140.605 113.36C140.212 113.36 139.875 113.487 139.595 113.74C139.315 113.987 139.148 114.323 139.095 114.75H142.145ZM152.605 111.05V118H151.465V114.96H148.195V118H147.055V111.05H148.195V114.03H151.465V111.05H152.605ZM156.495 118.09C155.975 118.09 155.505 117.973 155.085 117.74C154.665 117.5 154.335 117.167 154.095 116.74C153.855 116.307 153.735 115.807 153.735 115.24C153.735 114.68 153.859 114.183 154.105 113.75C154.352 113.317 154.689 112.983 155.115 112.75C155.542 112.517 156.019 112.4 156.545 112.4C157.072 112.4 157.549 112.517 157.975 112.75C158.402 112.983 158.739 113.317 158.985 113.75C159.232 114.183 159.355 114.68 159.355 115.24C159.355 115.8 159.229 116.297 158.975 116.73C158.722 117.163 158.375 117.5 157.935 117.74C157.502 117.973 157.022 118.09 156.495 118.09ZM156.495 117.1C156.789 117.1 157.062 117.03 157.315 116.89C157.575 116.75 157.785 116.54 157.945 116.26C158.105 115.98 158.185 115.64 158.185 115.24C158.185 114.84 158.109 114.503 157.955 114.23C157.802 113.95 157.599 113.74 157.345 113.6C157.092 113.46 156.819 113.39 156.525 113.39C156.232 113.39 155.959 113.46 155.705 113.6C155.459 113.74 155.262 113.95 155.115 114.23C154.969 114.503 154.895 114.84 154.895 115.24C154.895 115.833 155.045 116.293 155.345 116.62C155.652 116.94 156.035 117.1 156.495 117.1ZM165.472 112.49V118H164.332V117.35C164.152 117.577 163.916 117.757 163.622 117.89C163.336 118.017 163.029 118.08 162.702 118.08C162.269 118.08 161.879 117.99 161.532 117.81C161.192 117.63 160.922 117.363 160.722 117.01C160.529 116.657 160.432 116.23 160.432 115.73V112.49H161.562V115.56C161.562 116.053 161.686 116.433 161.932 116.7C162.179 116.96 162.516 117.09 162.942 117.09C163.369 117.09 163.706 116.96 163.952 116.7C164.206 116.433 164.332 116.053 164.332 115.56V112.49H165.472ZM168.977 118.09C168.543 118.09 168.153 118.013 167.807 117.86C167.467 117.7 167.197 117.487 166.997 117.22C166.797 116.947 166.69 116.643 166.677 116.31H167.857C167.877 116.543 167.987 116.74 168.187 116.9C168.393 117.053 168.65 117.13 168.957 117.13C169.277 117.13 169.523 117.07 169.697 116.95C169.877 116.823 169.967 116.663 169.967 116.47C169.967 116.263 169.867 116.11 169.667 116.01C169.473 115.91 169.163 115.8 168.737 115.68C168.323 115.567 167.987 115.457 167.727 115.35C167.467 115.243 167.24 115.08 167.047 114.86C166.86 114.64 166.767 114.35 166.767 113.99C166.767 113.697 166.853 113.43 167.027 113.19C167.2 112.943 167.447 112.75 167.767 112.61C168.093 112.47 168.467 112.4 168.887 112.4C169.513 112.4 170.017 112.56 170.397 112.88C170.783 113.193 170.99 113.623 171.017 114.17H169.877C169.857 113.923 169.757 113.727 169.577 113.58C169.397 113.433 169.153 113.36 168.847 113.36C168.547 113.36 168.317 113.417 168.157 113.53C167.997 113.643 167.917 113.793 167.917 113.98C167.917 114.127 167.97 114.25 168.077 114.35C168.183 114.45 168.313 114.53 168.467 114.59C168.62 114.643 168.847 114.713 169.147 114.8C169.547 114.907 169.873 115.017 170.127 115.13C170.387 115.237 170.61 115.397 170.797 115.61C170.983 115.823 171.08 116.107 171.087 116.46C171.087 116.773 171 117.053 170.827 117.3C170.653 117.547 170.407 117.74 170.087 117.88C169.773 118.02 169.403 118.09 168.977 118.09ZM177.368 115.11C177.368 115.317 177.355 115.503 177.328 115.67H173.118C173.152 116.11 173.315 116.463 173.608 116.73C173.902 116.997 174.262 117.13 174.688 117.13C175.302 117.13 175.735 116.873 175.988 116.36H177.218C177.052 116.867 176.748 117.283 176.308 117.61C175.875 117.93 175.335 118.09 174.688 118.09C174.162 118.09 173.688 117.973 173.268 117.74C172.855 117.5 172.528 117.167 172.288 116.74C172.055 116.307 171.938 115.807 171.938 115.24C171.938 114.673 172.052 114.177 172.278 113.75C172.512 113.317 172.835 112.983 173.248 112.75C173.668 112.517 174.148 112.4 174.688 112.4C175.208 112.4 175.672 112.513 176.078 112.74C176.485 112.967 176.802 113.287 177.028 113.7C177.255 114.107 177.368 114.577 177.368 115.11ZM176.178 114.75C176.172 114.33 176.022 113.993 175.728 113.74C175.435 113.487 175.072 113.36 174.638 113.36C174.245 113.36 173.908 113.487 173.628 113.74C173.348 113.987 173.182 114.323 173.128 114.75H176.178Z" fill="white"/>
<path d="M79.408 128.416C80.0853 127.872 80.616 127.427 81 127.08C81.384 126.728 81.7067 126.363 81.968 125.984C82.2347 125.6 82.368 125.224 82.368 124.856C82.368 124.509 82.2827 124.237 82.112 124.04C81.9467 123.837 81.6773 123.736 81.304 123.736C80.9413 123.736 80.6587 123.851 80.456 124.08C80.2587 124.304 80.152 124.605 80.136 124.984H79.432C79.4533 124.387 79.6347 123.925 79.976 123.6C80.3173 123.275 80.7573 123.112 81.296 123.112C81.8453 123.112 82.28 123.264 82.6 123.568C82.9253 123.872 83.088 124.291 83.088 124.824C83.088 125.267 82.9547 125.699 82.688 126.12C82.4267 126.536 82.128 126.904 81.792 127.224C81.456 127.539 81.0267 127.907 80.504 128.328H83.256V128.936H79.408V128.416ZM84.0976 126.048C84.0976 125.131 84.2469 124.416 84.5456 123.904C84.8442 123.387 85.3669 123.128 86.1136 123.128C86.8549 123.128 87.3749 123.387 87.6736 123.904C87.9722 124.416 88.1216 125.131 88.1216 126.048C88.1216 126.981 87.9722 127.707 87.6736 128.224C87.3749 128.741 86.8549 129 86.1136 129C85.3669 129 84.8442 128.741 84.5456 128.224C84.2469 127.707 84.0976 126.981 84.0976 126.048ZM87.4016 126.048C87.4016 125.584 87.3696 125.192 87.3056 124.872C87.2469 124.547 87.1216 124.285 86.9296 124.088C86.7429 123.891 86.4709 123.792 86.1136 123.792C85.7509 123.792 85.4736 123.891 85.2816 124.088C85.0949 124.285 84.9696 124.547 84.9056 124.872C84.8469 125.192 84.8176 125.584 84.8176 126.048C84.8176 126.528 84.8469 126.931 84.9056 127.256C84.9696 127.581 85.0949 127.843 85.2816 128.04C85.4736 128.237 85.7509 128.336 86.1136 128.336C86.4709 128.336 86.7429 128.237 86.9296 128.04C87.1216 127.843 87.2469 127.581 87.3056 127.256C87.3696 126.931 87.4016 126.528 87.4016 126.048ZM89.473 129.048C89.3343 129.048 89.217 129 89.121 128.904C89.025 128.808 88.977 128.691 88.977 128.552C88.977 128.413 89.025 128.296 89.121 128.2C89.217 128.104 89.3343 128.056 89.473 128.056C89.6063 128.056 89.7183 128.104 89.809 128.2C89.905 128.296 89.953 128.413 89.953 128.552C89.953 128.691 89.905 128.808 89.809 128.904C89.7183 129 89.6063 129.048 89.473 129.048ZM90.8007 126.048C90.8007 125.131 90.95 124.416 91.2487 123.904C91.5474 123.387 92.07 123.128 92.8167 123.128C93.558 123.128 94.078 123.387 94.3767 123.904C94.6754 124.416 94.8247 125.131 94.8247 126.048C94.8247 126.981 94.6754 127.707 94.3767 128.224C94.078 128.741 93.558 129 92.8167 129C92.07 129 91.5474 128.741 91.2487 128.224C90.95 127.707 90.8007 126.981 90.8007 126.048ZM94.1047 126.048C94.1047 125.584 94.0727 125.192 94.0087 124.872C93.95 124.547 93.8247 124.285 93.6327 124.088C93.446 123.891 93.174 123.792 92.8167 123.792C92.454 123.792 92.1767 123.891 91.9847 124.088C91.798 124.285 91.6727 124.547 91.6087 124.872C91.55 125.192 91.5207 125.584 91.5207 126.048C91.5207 126.528 91.55 126.931 91.6087 127.256C91.6727 127.581 91.798 127.843 91.9847 128.04C92.1767 128.237 92.454 128.336 92.8167 128.336C93.174 128.336 93.446 128.237 93.6327 128.04C93.8247 127.843 93.95 127.581 94.0087 127.256C94.0727 126.931 94.1047 126.528 94.1047 126.048ZM95.8241 126.048C95.8241 125.131 95.9735 124.416 96.2721 123.904C96.5708 123.387 97.0935 123.128 97.8401 123.128C98.5815 123.128 99.1015 123.387 99.4001 123.904C99.6988 124.416 99.8481 125.131 99.8481 126.048C99.8481 126.981 99.6988 127.707 99.4001 128.224C99.1015 128.741 98.5815 129 97.8401 129C97.0935 129 96.5708 128.741 96.2721 128.224C95.9735 127.707 95.8241 126.981 95.8241 126.048ZM99.1281 126.048C99.1281 125.584 99.0961 125.192 99.0321 124.872C98.9735 124.547 98.8481 124.285 98.6561 124.088C98.4695 123.891 98.1975 123.792 97.8401 123.792C97.4775 123.792 97.2001 123.891 97.0081 124.088C96.8215 124.285 96.6961 124.547 96.6321 124.872C96.5735 125.192 96.5441 125.584 96.5441 126.048C96.5441 126.528 96.5735 126.931 96.6321 127.256C96.6961 127.581 96.8215 127.843 97.0081 128.04C97.2001 128.237 97.4775 128.336 97.8401 128.336C98.1975 128.336 98.4695 128.237 98.6561 128.04C98.8481 127.843 98.9735 127.581 99.0321 127.256C99.0961 126.931 99.1281 126.528 99.1281 126.048Z" fill="white"/>
<path d="M290.392 118.451L289.577 121.169C289.507 121.4 289.571 121.65 289.741 121.821C289.866 121.946 290.034 122.013 290.205 122.013C290.268 122.013 290.332 122.004 290.394 121.985L293.112 121.171C293.216 121.139 293.311 121.083 293.387 121.006L298.37 116.023C298.493 115.9 298.562 115.733 298.562 115.559C298.562 115.385 298.493 115.218 298.37 115.095L296.467 113.192C296.211 112.936 295.795 112.936 295.539 113.192L290.556 118.175C290.479 118.252 290.423 118.347 290.392 118.451ZM291.601 118.986L296.003 114.584L296.978 115.559L292.576 119.961L291.184 120.379L291.601 118.986Z" fill="white"/>
<path d="M297.906 119.125C297.544 119.125 297.25 119.419 297.25 119.781V124.156C297.25 124.76 296.759 125.25 296.156 125.25H287.406C286.803 125.25 286.312 124.76 286.312 124.156V115.406C286.312 114.803 286.803 114.312 287.406 114.312H291.781C292.144 114.312 292.438 114.019 292.438 113.656C292.438 113.294 292.144 113 291.781 113H287.406C286.079 113 285 114.08 285 115.406V124.156C285 125.483 286.079 126.562 287.406 126.562H296.156C297.483 126.562 298.562 125.483 298.562 124.156V119.781C298.562 119.419 298.269 119.125 297.906 119.125Z" fill="white"/>
<g filter="url(#filter2_d)">
<rect x="50" y="152" width="277" height="49" rx="16" fill="white"/>
</g>
<path d="M87.07 168.05V175H85.93V170.24L83.81 175H83.02L80.89 170.24V175H79.75V168.05H80.98L83.42 173.5L85.85 168.05H87.07ZM90.9584 175.09C90.4384 175.09 89.9684 174.973 89.5484 174.74C89.1284 174.5 88.7984 174.167 88.5584 173.74C88.3184 173.307 88.1984 172.807 88.1984 172.24C88.1984 171.68 88.3217 171.183 88.5684 170.75C88.815 170.317 89.1517 169.983 89.5784 169.75C90.005 169.517 90.4817 169.4 91.0084 169.4C91.535 169.4 92.0117 169.517 92.4384 169.75C92.865 169.983 93.2017 170.317 93.4484 170.75C93.695 171.183 93.8184 171.68 93.8184 172.24C93.8184 172.8 93.6917 173.297 93.4384 173.73C93.185 174.163 92.8384 174.5 92.3984 174.74C91.965 174.973 91.485 175.09 90.9584 175.09ZM90.9584 174.1C91.2517 174.1 91.525 174.03 91.7784 173.89C92.0384 173.75 92.2484 173.54 92.4084 173.26C92.5684 172.98 92.6484 172.64 92.6484 172.24C92.6484 171.84 92.5717 171.503 92.4184 171.23C92.265 170.95 92.0617 170.74 91.8084 170.6C91.555 170.46 91.2817 170.39 90.9884 170.39C90.695 170.39 90.4217 170.46 90.1684 170.6C89.9217 170.74 89.725 170.95 89.5784 171.23C89.4317 171.503 89.3584 171.84 89.3584 172.24C89.3584 172.833 89.5084 173.293 89.8084 173.62C90.115 173.94 90.4984 174.1 90.9584 174.1ZM97.0753 173.98L98.6353 169.49H99.8453L97.7453 175H96.3853L94.2953 169.49H95.5153L97.0753 173.98ZM101.287 168.76C101.08 168.76 100.907 168.69 100.767 168.55C100.627 168.41 100.557 168.237 100.557 168.03C100.557 167.823 100.627 167.65 100.767 167.51C100.907 167.37 101.08 167.3 101.287 167.3C101.487 167.3 101.657 167.37 101.797 167.51C101.937 167.65 102.007 167.823 102.007 168.03C102.007 168.237 101.937 168.41 101.797 168.55C101.657 168.69 101.487 168.76 101.287 168.76ZM101.847 169.49V175H100.707V169.49H101.847ZM108.394 172.11C108.394 172.317 108.38 172.503 108.354 172.67H104.144C104.177 173.11 104.34 173.463 104.634 173.73C104.927 173.997 105.287 174.13 105.714 174.13C106.327 174.13 106.76 173.873 107.014 173.36H108.244C108.077 173.867 107.774 174.283 107.334 174.61C106.9 174.93 106.36 175.09 105.714 175.09C105.187 175.09 104.714 174.973 104.294 174.74C103.88 174.5 103.554 174.167 103.314 173.74C103.08 173.307 102.964 172.807 102.964 172.24C102.964 171.673 103.077 171.177 103.304 170.75C103.537 170.317 103.86 169.983 104.274 169.75C104.694 169.517 105.174 169.4 105.714 169.4C106.234 169.4 106.697 169.513 107.104 169.74C107.51 169.967 107.827 170.287 108.054 170.7C108.28 171.107 108.394 171.577 108.394 172.11ZM107.204 171.75C107.197 171.33 107.047 170.993 106.754 170.74C106.46 170.487 106.097 170.36 105.664 170.36C105.27 170.36 104.934 170.487 104.654 170.74C104.374 170.987 104.207 171.323 104.154 171.75H107.204ZM117.823 175H116.683L113.253 169.81V175H112.113V168.04H113.253L116.683 173.22V168.04H117.823V175ZM119.9 168.76C119.694 168.76 119.52 168.69 119.38 168.55C119.24 168.41 119.17 168.237 119.17 168.03C119.17 167.823 119.24 167.65 119.38 167.51C119.52 167.37 119.694 167.3 119.9 167.3C120.1 167.3 120.27 167.37 120.41 167.51C120.55 167.65 120.62 167.823 120.62 168.03C120.62 168.237 120.55 168.41 120.41 168.55C120.27 168.69 120.1 168.76 119.9 168.76ZM120.46 169.49V175H119.32V169.49H120.46ZM124.177 169.4C124.604 169.4 124.98 169.487 125.307 169.66C125.64 169.827 125.9 170.037 126.087 170.29V169.49H127.237V175.09C127.237 175.597 127.13 176.047 126.917 176.44C126.704 176.84 126.394 177.153 125.987 177.38C125.587 177.607 125.107 177.72 124.547 177.72C123.8 177.72 123.18 177.543 122.687 177.19C122.194 176.843 121.914 176.37 121.847 175.77H122.977C123.064 176.057 123.247 176.287 123.527 176.46C123.814 176.64 124.154 176.73 124.547 176.73C125.007 176.73 125.377 176.59 125.657 176.31C125.944 176.03 126.087 175.623 126.087 175.09V174.17C125.894 174.43 125.63 174.65 125.297 174.83C124.97 175.003 124.597 175.09 124.177 175.09C123.697 175.09 123.257 174.97 122.857 174.73C122.464 174.483 122.15 174.143 121.917 173.71C121.69 173.27 121.577 172.773 121.577 172.22C121.577 171.667 121.69 171.177 121.917 170.75C122.15 170.323 122.464 169.993 122.857 169.76C123.257 169.52 123.697 169.4 124.177 169.4ZM126.087 172.24C126.087 171.86 126.007 171.53 125.847 171.25C125.694 170.97 125.49 170.757 125.237 170.61C124.984 170.463 124.71 170.39 124.417 170.39C124.124 170.39 123.85 170.463 123.597 170.61C123.344 170.75 123.137 170.96 122.977 171.24C122.824 171.513 122.747 171.84 122.747 172.22C122.747 172.6 122.824 172.933 122.977 173.22C123.137 173.507 123.344 173.727 123.597 173.88C123.857 174.027 124.13 174.1 124.417 174.1C124.71 174.1 124.984 174.027 125.237 173.88C125.49 173.733 125.694 173.52 125.847 173.24C126.007 172.953 126.087 172.62 126.087 172.24ZM131.584 169.4C132.004 169.4 132.378 169.49 132.704 169.67C133.038 169.85 133.298 170.117 133.484 170.47C133.678 170.823 133.774 171.25 133.774 171.75V175H132.644V171.92C132.644 171.427 132.521 171.05 132.274 170.79C132.028 170.523 131.691 170.39 131.264 170.39C130.838 170.39 130.498 170.523 130.244 170.79C129.998 171.05 129.874 171.427 129.874 171.92V175H128.734V167.6H129.874V170.13C130.068 169.897 130.311 169.717 130.604 169.59C130.904 169.463 131.231 169.4 131.584 169.4ZM136.559 170.42V173.47C136.559 173.677 136.605 173.827 136.699 173.92C136.799 174.007 136.965 174.05 137.199 174.05H137.899V175H136.999C136.485 175 136.092 174.88 135.819 174.64C135.545 174.4 135.409 174.01 135.409 173.47V170.42H134.759V169.49H135.409V168.12H136.559V169.49H137.899V170.42H136.559ZM148.947 169.49L147.237 175H146.037L144.927 170.93L143.817 175H142.617L140.897 169.49H142.057L143.207 173.92L144.377 169.49H145.567L146.687 173.9L147.827 169.49H148.947ZM150.379 168.76C150.172 168.76 149.999 168.69 149.859 168.55C149.719 168.41 149.649 168.237 149.649 168.03C149.649 167.823 149.719 167.65 149.859 167.51C149.999 167.37 150.172 167.3 150.379 167.3C150.579 167.3 150.749 167.37 150.889 167.51C151.029 167.65 151.099 167.823 151.099 168.03C151.099 168.237 151.029 168.41 150.889 168.55C150.749 168.69 150.579 168.76 150.379 168.76ZM150.939 169.49V175H149.799V169.49H150.939ZM153.766 170.42V173.47C153.766 173.677 153.812 173.827 153.906 173.92C154.006 174.007 154.172 174.05 154.406 174.05H155.106V175H154.206C153.692 175 153.299 174.88 153.026 174.64C152.752 174.4 152.616 174.01 152.616 173.47V170.42H151.966V169.49H152.616V168.12H153.766V169.49H155.106V170.42H153.766ZM159.006 169.4C159.426 169.4 159.8 169.49 160.126 169.67C160.46 169.85 160.72 170.117 160.906 170.47C161.1 170.823 161.196 171.25 161.196 171.75V175H160.066V171.92C160.066 171.427 159.943 171.05 159.696 170.79C159.45 170.523 159.113 170.39 158.686 170.39C158.26 170.39 157.92 170.523 157.666 170.79C157.42 171.05 157.296 171.427 157.296 171.92V175H156.156V167.6H157.296V170.13C157.49 169.897 157.733 169.717 158.026 169.59C158.326 169.463 158.653 169.4 159.006 169.4ZM169.338 168.05V168.98H166.388V171.03H168.688V171.96H166.388V175H165.248V168.05H169.338ZM171.535 170.29C171.701 170.01 171.921 169.793 172.195 169.64C172.475 169.48 172.805 169.4 173.185 169.4V170.58H172.895C172.448 170.58 172.108 170.693 171.875 170.92C171.648 171.147 171.535 171.54 171.535 172.1V175H170.395V169.49H171.535V170.29ZM174.812 168.76C174.606 168.76 174.432 168.69 174.292 168.55C174.152 168.41 174.082 168.237 174.082 168.03C174.082 167.823 174.152 167.65 174.292 167.51C174.432 167.37 174.606 167.3 174.812 167.3C175.012 167.3 175.182 167.37 175.322 167.51C175.462 167.65 175.532 167.823 175.532 168.03C175.532 168.237 175.462 168.41 175.322 168.55C175.182 168.69 175.012 168.76 174.812 168.76ZM175.372 169.49V175H174.232V169.49H175.372ZM181.919 172.11C181.919 172.317 181.906 172.503 181.879 172.67H177.669C177.702 173.11 177.866 173.463 178.159 173.73C178.452 173.997 178.812 174.13 179.239 174.13C179.852 174.13 180.286 173.873 180.539 173.36H181.769C181.602 173.867 181.299 174.283 180.859 174.61C180.426 174.93 179.886 175.09 179.239 175.09C178.712 175.09 178.239 174.973 177.819 174.74C177.406 174.5 177.079 174.167 176.839 173.74C176.606 173.307 176.489 172.807 176.489 172.24C176.489 171.673 176.602 171.177 176.829 170.75C177.062 170.317 177.386 169.983 177.799 169.75C178.219 169.517 178.699 169.4 179.239 169.4C179.759 169.4 180.222 169.513 180.629 169.74C181.036 169.967 181.352 170.287 181.579 170.7C181.806 171.107 181.919 171.577 181.919 172.11ZM180.729 171.75C180.722 171.33 180.572 170.993 180.279 170.74C179.986 170.487 179.622 170.36 179.189 170.36C178.796 170.36 178.459 170.487 178.179 170.74C177.899 170.987 177.732 171.323 177.679 171.75H180.729ZM185.821 169.4C186.254 169.4 186.641 169.49 186.981 169.67C187.328 169.85 187.598 170.117 187.791 170.47C187.984 170.823 188.081 171.25 188.081 171.75V175H186.951V171.92C186.951 171.427 186.828 171.05 186.581 170.79C186.334 170.523 185.998 170.39 185.571 170.39C185.144 170.39 184.804 170.523 184.551 170.79C184.304 171.05 184.181 171.427 184.181 171.92V175H183.041V169.49H184.181V170.12C184.368 169.893 184.604 169.717 184.891 169.59C185.184 169.463 185.494 169.4 185.821 169.4ZM189.155 172.22C189.155 171.667 189.268 171.177 189.495 170.75C189.728 170.323 190.042 169.993 190.435 169.76C190.835 169.52 191.278 169.4 191.765 169.4C192.125 169.4 192.478 169.48 192.825 169.64C193.178 169.793 193.458 170 193.665 170.26V167.6H194.815V175H193.665V174.17C193.478 174.437 193.218 174.657 192.885 174.83C192.558 175.003 192.182 175.09 191.755 175.09C191.275 175.09 190.835 174.97 190.435 174.73C190.042 174.483 189.728 174.143 189.495 173.71C189.268 173.27 189.155 172.773 189.155 172.22ZM193.665 172.24C193.665 171.86 193.585 171.53 193.425 171.25C193.272 170.97 193.068 170.757 192.815 170.61C192.562 170.463 192.288 170.39 191.995 170.39C191.702 170.39 191.428 170.463 191.175 170.61C190.922 170.75 190.715 170.96 190.555 171.24C190.402 171.513 190.325 171.84 190.325 172.22C190.325 172.6 190.402 172.933 190.555 173.22C190.715 173.507 190.922 173.727 191.175 173.88C191.435 174.027 191.708 174.1 191.995 174.1C192.288 174.1 192.562 174.027 192.815 173.88C193.068 173.733 193.272 173.52 193.425 173.24C193.585 172.953 193.665 172.62 193.665 172.24Z" fill="#4B4B4B"/>
<path d="M79.408 185.416C80.0853 184.872 80.616 184.427 81 184.08C81.384 183.728 81.7067 183.363 81.968 182.984C82.2347 182.6 82.368 182.224 82.368 181.856C82.368 181.509 82.2827 181.237 82.112 181.04C81.9467 180.837 81.6773 180.736 81.304 180.736C80.9413 180.736 80.6587 180.851 80.456 181.08C80.2587 181.304 80.152 181.605 80.136 181.984H79.432C79.4533 181.387 79.6347 180.925 79.976 180.6C80.3173 180.275 80.7573 180.112 81.296 180.112C81.8453 180.112 82.28 180.264 82.6 180.568C82.9253 180.872 83.088 181.291 83.088 181.824C83.088 182.267 82.9547 182.699 82.688 183.12C82.4267 183.536 82.128 183.904 81.792 184.224C81.456 184.539 81.0267 184.907 80.504 185.328H83.256V185.936H79.408V185.416ZM84.0096 185.416C84.6869 184.872 85.2176 184.427 85.6016 184.08C85.9856 183.728 86.3082 183.363 86.5696 182.984C86.8362 182.6 86.9696 182.224 86.9696 181.856C86.9696 181.509 86.8842 181.237 86.7136 181.04C86.5482 180.837 86.2789 180.736 85.9056 180.736C85.5429 180.736 85.2602 180.851 85.0576 181.08C84.8602 181.304 84.7536 181.605 84.7376 181.984H84.0336C84.0549 181.387 84.2362 180.925 84.5776 180.6C84.9189 180.275 85.3589 180.112 85.8976 180.112C86.4469 180.112 86.8816 180.264 87.2016 180.568C87.5269 180.872 87.6896 181.291 87.6896 181.824C87.6896 182.267 87.5562 182.699 87.2896 183.12C87.0282 183.536 86.7296 183.904 86.3936 184.224C86.0576 184.539 85.6282 184.907 85.1056 185.328H87.8576V185.936H84.0096V185.416ZM89.0511 186.048C88.9125 186.048 88.7951 186 88.6991 185.904C88.6031 185.808 88.5551 185.691 88.5551 185.552C88.5551 185.413 88.6031 185.296 88.6991 185.2C88.7951 185.104 88.9125 185.056 89.0511 185.056C89.1845 185.056 89.2965 185.104 89.3871 185.2C89.4831 185.296 89.5311 185.413 89.5311 185.552C89.5311 185.691 89.4831 185.808 89.3871 185.904C89.2965 186 89.1845 186.048 89.0511 186.048ZM90.3788 183.048C90.3788 182.131 90.5281 181.416 90.8268 180.904C91.1255 180.387 91.6481 180.128 92.3948 180.128C93.1361 180.128 93.6561 180.387 93.9548 180.904C94.2535 181.416 94.4028 182.131 94.4028 183.048C94.4028 183.981 94.2535 184.707 93.9548 185.224C93.6561 185.741 93.1361 186 92.3948 186C91.6481 186 91.1255 185.741 90.8268 185.224C90.5281 184.707 90.3788 183.981 90.3788 183.048ZM93.6828 183.048C93.6828 182.584 93.6508 182.192 93.5868 181.872C93.5281 181.547 93.4028 181.285 93.2108 181.088C93.0241 180.891 92.7521 180.792 92.3948 180.792C92.0321 180.792 91.7548 180.891 91.5628 181.088C91.3761 181.285 91.2508 181.547 91.1868 181.872C91.1281 182.192 91.0988 182.584 91.0988 183.048C91.0988 183.528 91.1281 183.931 91.1868 184.256C91.2508 184.581 91.3761 184.843 91.5628 185.04C91.7548 185.237 92.0321 185.336 92.3948 185.336C92.7521 185.336 93.0241 185.237 93.2108 185.04C93.4028 184.843 93.5281 184.581 93.5868 184.256C93.6508 183.931 93.6828 183.528 93.6828 183.048ZM95.4023 183.048C95.4023 182.131 95.5516 181.416 95.8503 180.904C96.1489 180.387 96.6716 180.128 97.4183 180.128C98.1596 180.128 98.6796 180.387 98.9783 180.904C99.2769 181.416 99.4262 182.131 99.4262 183.048C99.4262 183.981 99.2769 184.707 98.9783 185.224C98.6796 185.741 98.1596 186 97.4183 186C96.6716 186 96.1489 185.741 95.8503 185.224C95.5516 184.707 95.4023 183.981 95.4023 183.048ZM98.7063 183.048C98.7063 182.584 98.6743 182.192 98.6103 181.872C98.5516 181.547 98.4263 181.285 98.2343 181.088C98.0476 180.891 97.7756 180.792 97.4183 180.792C97.0556 180.792 96.7783 180.891 96.5863 181.088C96.3996 181.285 96.2743 181.547 96.2103 181.872C96.1516 182.192 96.1223 182.584 96.1223 183.048C96.1223 183.528 96.1516 183.931 96.2103 184.256C96.2743 184.581 96.3996 184.843 96.5863 185.04C96.7783 185.237 97.0556 185.336 97.4183 185.336C97.7756 185.336 98.0476 185.237 98.2343 185.04C98.4263 184.843 98.5516 184.581 98.6103 184.256C98.6743 183.931 98.7063 183.528 98.7063 183.048Z" fill="#757575"/>
<path d="M290.392 175.451L289.577 178.169C289.507 178.4 289.571 178.65 289.741 178.821C289.866 178.946 290.034 179.013 290.205 179.013C290.268 179.013 290.332 179.004 290.394 178.985L293.112 178.171C293.216 178.139 293.311 178.083 293.387 178.006L298.37 173.023C298.493 172.9 298.562 172.733 298.562 172.559C298.562 172.385 298.493 172.218 298.37 172.095L296.467 170.192C296.211 169.936 295.795 169.936 295.539 170.192L290.556 175.175C290.479 175.252 290.423 175.347 290.392 175.451ZM291.601 175.986L296.003 171.584L296.978 172.559L292.576 176.961L291.184 177.379L291.601 175.986Z" fill="url(#paint2_linear)"/>
<path d="M297.906 176.125C297.544 176.125 297.25 176.419 297.25 176.781V181.156C297.25 181.76 296.759 182.25 296.156 182.25H287.406C286.803 182.25 286.312 181.76 286.312 181.156V172.406C286.312 171.803 286.803 171.312 287.406 171.312H291.781C292.144 171.312 292.438 171.019 292.438 170.656C292.438 170.294 292.144 170 291.781 170H287.406C286.079 170 285 171.08 285 172.406V181.156C285 182.483 286.079 183.562 287.406 183.562H296.156C297.483 183.562 298.562 182.483 298.562 181.156V176.781C298.562 176.419 298.269 176.125 297.906 176.125Z" fill="url(#paint3_linear)"/>
<defs>
<filter id="filter0_d" x="10" y="8" width="357" height="129" filterUnits="userSpaceOnUse" color-interpolation-filters="sRGB">
<feFlood flood-opacity="0" result="BackgroundImageFix"/>
<feColorMatrix in="SourceAlpha" type="matrix" values="0 0 0 0 0 0 0 0 0 0 0 0 0 0 0 0 0 0 127 0" result="hardAlpha"/>
<feOffset dy="10"/>
<feGaussianBlur stdDeviation="20"/>
<feColorMatrix type="matrix" values="0 0 0 0 0.0196078 0 0 0 0 0.0196078 0 0 0 0 0.0196078 0 0 0 0.07 0"/>
<feBlend mode="normal" in2="BackgroundImageFix" result="effect1_dropShadow"/>
<feBlend mode="normal" in="SourceGraphic" in2="effect1_dropShadow" result="shape"/>
</filter>
<filter id="filter1_d" x="10" y="65" width="357" height="129" filterUnits="userSpaceOnUse" color-interpolation-filters="sRGB">
<feFlood flood-opacity="0" result="BackgroundImageFix"/>
<feColorMatrix in="SourceAlpha" type="matrix" values="0 0 0 0 0 0 0 0 0 0 0 0 0 0 0 0 0 0 127 0" result="hardAlpha"/>
<feOffset dy="10"/>
<feGaussianBlur stdDeviation="20"/>
<feColorMatrix type="matrix" values="0 0 0 0 0.0196078 0 0 0 0 0.0196078 0 0 0 0 0.0196078 0 0 0 0.07 0"/>
<feBlend mode="normal" in2="BackgroundImageFix" result="effect1_dropShadow"/>
<feBlend mode="normal" in="SourceGraphic" in2="effect1_dropShadow" result="shape"/>
</filter>
<filter id="filter2_d" x="10" y="122" width="357" height="129" filterUnits="userSpaceOnUse" color-interpolation-filters="sRGB">
<feFlood flood-opacity="0" result="BackgroundImageFix"/>
<feColorMatrix in="SourceAlpha" type="matrix" values="0 0 0 0 0 0 0 0 0 0 0 0 0 0 0 0 0 0 127 0" result="hardAlpha"/>
<feOffset dy="10"/>
<feGaussianBlur stdDeviation="20"/>
<feColorMatrix type="matrix" values="0 0 0 0 0.0196078 0 0 0 0 0.0196078 0 0 0 0 0.0196078 0 0 0 0.07 0"/>
<feBlend mode="normal" in2="BackgroundImageFix" result="effect1_dropShadow"/>
<feBlend mode="normal" in="SourceGraphic" in2="effect1_dropShadow" result="shape"/>
</filter>
<linearGradient id="paint0_linear" x1="33.4878" y1="43.0359" x2="361.372" y2="43.0358" gradientUnits="userSpaceOnUse">
<stop stop-color="#EAAFFF"/>
<stop offset="0.8155" stop-color="#A58FFF"/>
</linearGradient>
<linearGradient id="paint1_linear" x1="33.4878" y1="100.036" x2="361.372" y2="100.036" gradientUnits="userSpaceOnUse">
<stop stop-color="#EAAFFF"/>
<stop offset="0.8155" stop-color="#A58FFF"/>
</linearGradient>
<linearGradient id="paint2_linear" x1="289.012" y1="170.926" x2="299.681" y2="170.926" gradientUnits="userSpaceOnUse">
<stop stop-color="#EAAFFF"/>
<stop offset="0.8155" stop-color="#A58FFF"/>
</linearGradient>
<linearGradient id="paint3_linear" x1="284.192" y1="171.394" x2="300.245" y2="171.394" gradientUnits="userSpaceOnUse">
<stop stop-color="#EAAFFF"/>
<stop offset="0.8155" stop-color="#A58FFF"/>
</linearGradient>
</defs>
</svg>
