<svg width="411" height="115" viewBox="0 0 411 115" fill="none" xmlns="http://www.w3.org/2000/svg">
<rect y="53" width="411" height="62" fill="white"/>
<path fill-rule="evenodd" clip-rule="evenodd" d="M335 87C336.287 87 337.412 86.1832 337.829 85H339.423C339.772 85 340.118 84.9266 340.438 84.7845C341.7 84.2238 342.268 82.7464 341.707 81.4847L341 79.8939V77C341 74.3876 339.33 72.1651 337 71.3414V71C337 69.8954 336.105 69 335 69C333.896 69 333 69.8954 333 71V71.3414C330.67 72.1651 329 74.3876 329 77V79.8939L328.293 81.4847C328.151 81.8043 328.078 82.1502 328.078 82.5C328.078 83.8807 329.197 85 330.578 85H332.171C332.587 86.1802 333.711 87 335 87ZM333.267 85H336.733C336.384 85.6045 335.731 86 335 86C334.268 86 333.616 85.6033 333.267 85ZM336 71.083V71C336 70.4477 335.552 70 335 70C334.448 70 334 70.4477 334 71V71.083C334.325 71.0284 334.659 71 335 71C335.341 71 335.675 71.0284 336 71.083ZM330 77C330 74.2386 332.239 72 335 72C337.762 72 340 74.2386 340 77V80L340.043 80.2031L340.793 81.8908C341.13 82.6478 340.789 83.5343 340.032 83.8707C339.84 83.956 339.632 84 339.423 84H330.578C329.749 84 329.078 83.3284 329.078 82.5C329.078 82.2901 329.122 82.0826 329.207 81.8908L329.957 80.2031L330 80V77Z" fill="#4B4B4B"/>
<path fill-rule="evenodd" clip-rule="evenodd" d="M81 69H82.5C83.8807 69 85 70.1193 85 71.5V84.5074C85 85.8881 83.8807 87.0074 82.5 87.0074H69.5C68.1193 87.0074 67 85.8881 67 84.5074V71.5C67 70.1193 68.1193 69 69.5 69H71V68.5C71 68.2239 71.2239 68 71.5 68C71.7761 68 72 68.2239 72 68.5V69H80V68.5C80 68.2239 80.2239 68 80.5 68C80.7761 68 81 68.2239 81 68.5V69ZM80 70H72V70.5C72 70.7761 71.7761 71 71.5 71C71.2239 71 71 70.7761 71 70.5V70H69.5C68.6716 70 68 70.6716 68 71.5V74H84V71.5C84 70.6716 83.3284 70 82.5 70H81V70.5C81 70.7761 80.7761 71 80.5 71C80.2239 71 80 70.7761 80 70.5V70ZM68 75H84V84.5074C84 85.3358 83.3284 86.0074 82.5 86.0074H69.5C68.6716 86.0074 68 85.3358 68 84.5074V75Z" fill="#4B4B4B"/>
<path d="M213 76.736V84.5C213 85.8807 211.881 87 210.5 87H207.5C207.224 87 207 86.7761 207 86.5V80.5C207 80.2239 206.776 80 206.5 80H203.5C203.224 80 203 80.2239 203 80.5V86.5C203 86.7761 202.776 87 202.5 87H199.5C198.119 87 197 85.8807 197 84.5V76.736L196.818 76.886C196.605 77.0615 196.29 77.031 196.114 76.8179C195.939 76.6047 195.969 76.2896 196.182 76.114L204.682 69.114C204.867 68.962 205.133 68.962 205.318 69.114L213.818 76.114C214.031 76.2896 214.062 76.6047 213.886 76.8179C213.71 77.031 213.395 77.0615 213.182 76.886L213 76.736Z" fill="url(#paint0_linear)"/>
<rect x="182" width="47" height="29" rx="14.5" fill="url(#paint1_linear)"/>
<rect x="204" y="8" width="2" height="14" rx="1" fill="white"/>
<rect x="198" y="16" width="2" height="14" rx="1" transform="rotate(-90 198 16)" fill="white"/>
<defs>
<linearGradient id="paint0_linear" x1="205" y1="69" x2="205" y2="87" gradientUnits="userSpaceOnUse">
<stop stop-color="#CE90FE"/>
<stop offset="1" stop-color="#A58FFF"/>
</linearGradient>
<linearGradient id="paint1_linear" x1="205.5" y1="0" x2="205.5" y2="29" gradientUnits="userSpaceOnUse">
<stop stop-color="#CE90FE"/>
<stop offset="1" stop-color="#A58FFF"/>
</linearGradient>
</defs>
</svg>
